<svg width="1920" height="1080" viewBox="0 0 1920 1080" fill="none" xmlns="http://www.w3.org/2000/svg">
<path d="M236.696 633.328L616.151 408.65C667.851 378.038 684.946 311.311 654.334 259.611C623.722 207.911 556.995 190.816 505.295 221.428L125.84 446.105C74.1402 476.717 57.0448 543.444 87.6566 595.144C118.269 646.844 184.996 663.939 236.696 633.328Z" fill="#EA4335"/>
<path d="M505.293 858.567L125.838 633.89C74.1377 603.278 57.0424 536.551 87.6543 484.851C118.266 433.151 184.993 416.055 236.693 446.667L616.148 671.345C667.848 701.956 684.943 768.683 654.331 820.383C623.72 872.083 556.993 889.179 505.293 858.567Z" fill="#4285F5"/>
<path d="M1683.16 633.397L1303.44 408.563C1251.71 377.93 1234.6 311.156 1265.23 259.42C1295.87 207.684 1362.64 190.577 1414.37 221.21L1794.09 446.044C1845.83 476.677 1862.94 543.451 1832.3 595.187C1801.67 646.923 1734.9 664.03 1683.16 633.397Z" fill="#0F9D58"/>
<path d="M1414.37 858.792L1794.09 633.958C1845.83 603.325 1862.94 536.552 1832.3 484.816C1801.67 433.08 1734.9 415.972 1683.16 446.606L1303.44 671.439C1251.71 702.073 1234.6 768.846 1265.23 820.582C1295.86 872.318 1362.64 889.425 1414.37 858.792Z" fill="#F4B400"/>
</svg>
