<svg width="150" height="145" viewBox="0 0 150 145" fill="none" xmlns="http://www.w3.org/2000/svg">
<path d="M112.804 22.0462L57.0199 1.5192C52.0069 -0.328793 46.3491 1.15329 42.8552 5.20695L3.53174 50.8308C0.352316 54.5196 -0.459965 59.6835 1.40848 64.1552L25.3983 121.57C26.9466 125.307 30.1693 128.085 34.0934 129.065L94.4195 144.322C99.1383 145.528 104.123 143.925 107.285 140.256L146.608 94.6325C150.102 90.5789 150.716 84.7847 148.149 80.0991L119.617 27.9536C118.162 25.2157 115.729 23.1194 112.804 22.0462ZM105.381 37.5851L131.718 85.7194L131.526 85.9424L78.9846 68.2105L53.6957 18.8601L53.8878 18.6371L105.381 37.5851ZM49.6758 115.33L75.6876 85.1509L119.472 99.9275L96.0805 127.067L49.6758 115.33Z" fill="url(#paint0_linear_11_76)"/>
<defs>
<linearGradient id="paint0_linear_11_76" x1="116.754" y1="24.3691" x2="28.8549" y2="126.351" gradientUnits="userSpaceOnUse">
<stop stop-color="#DC2121"/>
<stop offset="0.0001" stop-color="#4285F4" stop-opacity="0.5"/>
<stop offset="1" stop-color="#0F9D58" stop-opacity="0.5"/>
</linearGradient>
</defs>
</svg>
