<svg width="364" height="142" viewBox="0 0 364 142" fill="none" xmlns="http://www.w3.org/2000/svg">
<path d="M9.207 109.024C7.536 109.024 5.99736 108.575 4.59109 107.678C3.18482 106.781 2.06807 105.545 1.24084 103.971C0.413611 102.396 0 100.657 0 98.7529C0 96.8487 0.413611 95.1097 1.24084 93.5351C2.06807 91.9605 3.18482 90.7247 4.59109 89.8278C5.99736 88.9309 7.536 88.4822 9.207 88.4822C10.514 88.4822 11.7383 88.7386 12.8799 89.2511C14.038 89.7636 14.9893 90.4869 15.7338 91.4206L14.22 93.0957C13.6575 92.3268 12.9378 91.7408 12.0609 91.3382C11.1841 90.917 10.241 90.7066 9.23182 90.7066C7.97445 90.7066 6.79978 91.0454 5.70784 91.7227C4.63244 92.3817 3.76385 93.3247 3.10209 94.5512C2.45685 95.7595 2.13424 97.1601 2.13424 98.7529C2.13424 100.346 2.45685 101.755 3.10209 102.982C3.76385 104.19 4.64072 105.133 5.73266 105.811C6.8246 106.47 7.99098 106.799 9.23182 106.799C10.423 106.799 11.4157 106.598 12.2098 106.195C13.0205 105.774 13.7154 105.225 14.2944 104.547C14.7246 104.035 15.072 103.421 15.3367 102.707C15.6014 101.975 15.7669 101.169 15.8331 100.291H9.25664V98.1212H17.7936C17.8763 98.6337 17.9177 99.1099 17.9177 99.5492C17.9177 100.758 17.744 101.938 17.3965 103.092C17.0491 104.227 16.4948 105.225 15.7338 106.085C14.0959 108.044 11.9203 109.024 9.207 109.024ZM26.3453 109.024C25.1045 109.024 23.9877 108.694 22.995 108.035C22.0024 107.376 21.2248 106.479 20.6623 105.344C20.1163 104.208 19.8433 102.954 19.8433 101.581C19.8433 100.208 20.1163 98.9544 20.6623 97.8192C21.2248 96.6839 22.0024 95.787 22.995 95.1279C23.9877 94.4688 25.1045 94.1393 26.3453 94.1393C27.5861 94.1393 28.7029 94.4688 29.6955 95.1279C30.6882 95.787 31.4575 96.6839 32.0035 97.8192C32.566 98.9544 32.8473 100.208 32.8473 101.581C32.8473 102.954 32.566 104.208 32.0035 105.344C31.4575 106.479 30.6882 107.376 29.6955 108.035C28.7029 108.694 27.5861 109.024 26.3453 109.024ZM26.3453 106.909C27.1229 106.909 27.8426 106.699 28.5043 106.277C29.1827 105.838 29.7204 105.216 30.1174 104.41C30.531 103.604 30.7378 102.662 30.7378 101.581C30.7378 100.501 30.531 99.5585 30.1174 98.7529C29.7204 97.9472 29.1827 97.3341 28.5043 96.9129C27.8426 96.4735 27.1229 96.2538 26.3453 96.2538C25.5677 96.2538 24.8398 96.4735 24.1614 96.9129C23.4831 97.3341 22.9371 97.9472 22.5235 98.7529C22.1264 99.5585 21.9279 100.501 21.9279 101.581C21.9279 102.662 22.1264 103.604 22.5235 104.41C22.9371 105.216 23.4831 105.838 24.1614 106.277C24.8398 106.699 25.5677 106.909 26.3453 106.909ZM41.1286 109.024C39.8878 109.024 38.771 108.694 37.7784 108.035C36.7857 107.376 36.0083 106.479 35.4457 105.344C34.8997 104.208 34.6267 102.954 34.6267 101.581C34.6267 100.208 34.8997 98.9544 35.4457 97.8192C36.0083 96.6839 36.7857 95.787 37.7784 95.1279C38.771 94.4688 39.8878 94.1393 41.1286 94.1393C42.3694 94.1393 43.4862 94.4688 44.4789 95.1279C45.4715 95.787 46.2409 96.6839 46.7868 97.8192C47.3496 98.9544 47.6306 100.208 47.6306 101.581C47.6306 102.954 47.3496 104.208 46.7868 105.344C46.2409 106.479 45.4715 107.376 44.4789 108.035C43.4862 108.694 42.3694 109.024 41.1286 109.024ZM41.1286 106.909C41.9063 106.909 42.626 106.699 43.2877 106.277C43.9661 105.838 44.5037 105.216 44.9008 104.41C45.3146 103.604 45.5212 102.662 45.5212 101.581C45.5212 100.501 45.3146 99.5585 44.9008 98.7529C44.5037 97.9472 43.9661 97.3341 43.2877 96.9129C42.626 96.4735 41.9063 96.2538 41.1286 96.2538C40.3513 96.2538 39.6232 96.4735 38.9447 96.9129C38.2667 97.3341 37.7207 97.9472 37.3068 98.7529C36.9098 99.5585 36.7112 100.501 36.7112 101.581C36.7112 102.662 36.9098 103.604 37.3068 104.41C37.7207 105.216 38.2667 105.838 38.9447 106.277C39.6232 106.699 40.3513 106.909 41.1286 106.909ZM55.6391 114.955C54.1501 114.955 52.9177 114.571 51.9415 113.802C50.982 113.033 50.3368 112.109 50.0057 111.028L51.9166 110.122C52.198 110.928 52.6611 111.577 53.3064 112.072C53.968 112.584 54.7457 112.841 55.6391 112.841C56.946 112.841 57.9555 112.419 58.6668 111.577C59.3949 110.735 59.7587 109.545 59.7587 108.007V106.442H59.6595C59.246 107.156 58.6584 107.742 57.8975 108.2C57.153 108.639 56.3008 108.859 55.3413 108.859C54.2494 108.859 53.2483 108.547 52.3385 107.925C51.4451 107.303 50.7338 106.433 50.2043 105.316C49.6747 104.2 49.4101 102.927 49.4101 101.499C49.4101 100.089 49.6747 98.826 50.2043 97.7093C50.7338 96.5741 51.4451 95.6953 52.3385 95.073C53.2483 94.4507 54.2494 94.1393 55.3413 94.1393C56.3008 94.1393 57.153 94.3683 57.8975 94.8258C58.6584 95.2652 59.246 95.8512 59.6595 96.5834H59.7587V94.5787H61.7689V108.035C61.7689 110.287 61.2065 111.999 60.0813 113.17C58.9562 114.36 57.4756 114.955 55.6391 114.955ZM55.6391 106.744C56.4001 106.744 57.0869 106.534 57.6989 106.113C58.3278 105.691 58.8241 105.087 59.1879 104.3C59.5686 103.513 59.7587 102.579 59.7587 101.499C59.7587 100.401 59.5686 99.4576 59.1879 98.6705C58.8241 97.8834 58.3278 97.2881 57.6989 96.8855C57.0869 96.4642 56.4001 96.2538 55.6391 96.2538C54.8782 96.2538 54.1834 96.4642 53.5545 96.8855C52.9257 97.3067 52.4214 97.9108 52.0407 98.6979C51.6769 99.485 51.4948 100.419 51.4948 101.499C51.4948 102.579 51.6769 103.522 52.0407 104.328C52.4214 105.115 52.9257 105.719 53.5545 106.14C54.1834 106.543 54.8782 106.744 55.6391 106.744ZM64.8878 88.9216H66.9972V108.584H64.8878V88.9216ZM75.6349 109.024C74.4269 109.024 73.3434 108.703 72.3839 108.062C71.4241 107.421 70.6716 106.543 70.1256 105.426C69.5961 104.291 69.3315 103.019 69.3315 101.609C69.3315 100.254 69.5797 99.0093 70.076 97.8741C70.5887 96.7389 71.3084 95.8326 72.235 95.1554C73.1613 94.4781 74.2368 94.1393 75.4612 94.1393C76.7021 94.1393 77.7772 94.4507 78.6874 95.073C79.5972 95.6771 80.2921 96.5192 80.772 97.5995C81.2683 98.6798 81.5165 99.9155 81.5165 101.307C81.5165 101.581 81.4917 101.819 81.4421 102.021H71.4409C71.4905 103.083 71.7219 103.98 72.1358 104.712C72.5493 105.444 73.0704 105.993 73.6992 106.36C74.3445 106.726 75.0145 106.909 75.7094 106.909C77.3305 106.909 78.5797 106.067 79.4567 104.383L81.2435 105.344C80.6975 106.479 79.953 107.376 79.01 108.035C78.0834 108.694 76.9582 109.024 75.6349 109.024ZM79.283 100.098C79.2498 99.5125 79.1009 98.9269 78.8363 98.3409C78.5713 97.7549 78.1494 97.2606 77.5706 96.858C77.0079 96.4554 76.2966 96.2538 75.4364 96.2538C74.4437 96.2538 73.6 96.6108 72.9051 97.3249C72.2266 98.0207 71.7799 98.9451 71.565 100.098H79.283ZM90.1749 88.9216H95.5353C97.3553 88.9216 98.9436 89.3428 100.3 90.1848C101.657 91.0087 102.699 92.1621 103.427 93.645C104.155 95.1279 104.519 96.8305 104.519 98.7529C104.519 100.675 104.155 102.378 103.427 103.861C102.699 105.344 101.657 106.506 100.3 107.348C98.9436 108.172 97.3553 108.584 95.5353 108.584H90.1749V88.9216ZM95.5353 106.36C97.6363 106.36 99.299 105.691 100.523 104.355C101.764 103.019 102.385 101.151 102.385 98.7529C102.385 96.3544 101.764 94.487 100.523 93.1507C99.299 91.8143 97.6363 91.146 95.5353 91.146H92.2595V106.36H95.5353ZM112.472 109.024C111.265 109.024 110.181 108.703 109.221 108.062C108.262 107.421 107.509 106.543 106.963 105.426C106.433 104.291 106.169 103.019 106.169 101.609C106.169 100.254 106.417 99.0093 106.913 97.8741C107.426 96.7389 108.146 95.8326 109.072 95.1554C109.999 94.4781 111.074 94.1393 112.298 94.1393C113.539 94.1393 114.615 94.4507 115.525 95.073C116.434 95.6771 117.129 96.5192 117.609 97.5995C118.106 98.6798 118.354 99.9155 118.354 101.307C118.354 101.581 118.329 101.819 118.279 102.021H108.278C108.328 103.083 108.559 103.98 108.973 104.712C109.386 105.444 109.908 105.993 110.536 106.36C111.182 106.726 111.852 106.909 112.547 106.909C114.168 106.909 115.417 106.067 116.294 104.383L118.081 105.344C117.535 106.479 116.79 107.376 115.847 108.035C114.921 108.694 113.796 109.024 112.472 109.024ZM116.12 100.098C116.087 99.5125 115.938 98.9269 115.673 98.3409C115.409 97.7549 114.987 97.2606 114.408 96.858C113.845 96.4554 113.134 96.2538 112.274 96.2538C111.281 96.2538 110.437 96.6108 109.742 97.3249C109.064 98.0207 108.617 98.9451 108.402 100.098H116.12ZM119.19 94.5787H121.449L125.37 105.838H125.419L129.39 94.5787H131.599L126.437 108.584H124.302L119.19 94.5787ZM138.598 109.024C137.39 109.024 136.306 108.703 135.347 108.062C134.387 107.421 133.634 106.543 133.088 105.426C132.559 104.291 132.294 103.019 132.294 101.609C132.294 100.254 132.542 99.0093 133.039 97.8741C133.551 96.7389 134.271 95.8326 135.198 95.1554C136.124 94.4781 137.2 94.1393 138.424 94.1393C139.665 94.1393 140.74 94.4507 141.65 95.073C142.56 95.6771 143.255 96.5192 143.735 97.5995C144.231 98.6798 144.479 99.9155 144.479 101.307C144.479 101.581 144.454 101.819 144.405 102.021H134.404C134.453 103.083 134.685 103.98 135.098 104.712C135.512 105.444 136.033 105.993 136.662 106.36C137.307 106.726 137.977 106.909 138.672 106.909C140.293 106.909 141.542 106.067 142.419 104.383L144.206 105.344C143.66 106.479 142.916 107.376 141.973 108.035C141.046 108.694 139.921 109.024 138.598 109.024ZM142.246 100.098C142.212 99.5125 142.064 98.9269 141.799 98.3409C141.534 97.7549 141.112 97.2606 140.533 96.858C139.971 96.4554 139.259 96.2538 138.399 96.2538C137.406 96.2538 136.563 96.6108 135.868 97.3249C135.189 98.0207 134.743 98.9451 134.528 100.098H142.246ZM146.948 88.9216H149.057V108.584H146.948V88.9216ZM157.893 109.024C156.652 109.024 155.536 108.694 154.543 108.035C153.55 107.376 152.773 106.479 152.21 105.344C151.664 104.208 151.391 102.954 151.391 101.581C151.391 100.208 151.664 98.9544 152.21 97.8192C152.773 96.6839 153.55 95.787 154.543 95.1279C155.536 94.4688 156.652 94.1393 157.893 94.1393C159.134 94.1393 160.251 94.4688 161.243 95.1279C162.236 95.787 163.005 96.6839 163.551 97.8192C164.114 98.9544 164.395 100.208 164.395 101.581C164.395 102.954 164.114 104.208 163.551 105.344C163.005 106.479 162.236 107.376 161.243 108.035C160.251 108.694 159.134 109.024 157.893 109.024ZM157.893 106.909C158.671 106.909 159.391 106.699 160.052 106.277C160.731 105.838 161.268 105.216 161.665 104.41C162.079 103.604 162.286 102.662 162.286 101.581C162.286 100.501 162.079 99.5585 161.665 98.7529C161.268 97.9472 160.731 97.3341 160.052 96.9129C159.391 96.4735 158.671 96.2538 157.893 96.2538C157.116 96.2538 156.388 96.4735 155.709 96.9129C155.031 97.3341 154.485 97.9472 154.071 98.7529C153.674 99.5585 153.476 100.501 153.476 101.581C153.476 102.662 153.674 103.604 154.071 104.41C154.485 105.216 155.031 105.838 155.709 106.277C156.388 106.699 157.116 106.909 157.893 106.909ZM166.625 94.5787H168.635V96.6658H168.734C169.114 95.9518 169.685 95.3569 170.446 94.8808C171.224 94.3864 172.092 94.1393 173.052 94.1393C174.177 94.1393 175.203 94.4595 176.129 95.1004C177.056 95.7414 177.784 96.629 178.313 97.7642C178.842 98.8995 179.107 100.172 179.107 101.581C179.107 103.009 178.842 104.291 178.313 105.426C177.784 106.543 177.056 107.421 176.129 108.062C175.203 108.703 174.177 109.024 173.052 109.024C172.092 109.024 171.224 108.786 170.446 108.31C169.685 107.815 169.114 107.22 168.734 106.525H168.635L168.734 108.447V114.516H166.625V94.5787ZM172.804 106.909C173.532 106.909 174.218 106.689 174.864 106.25C175.509 105.811 176.022 105.188 176.402 104.383C176.799 103.559 176.998 102.625 176.998 101.581C176.998 100.538 176.799 99.6135 176.402 98.8078C176.022 97.9839 175.509 97.3523 174.864 96.9129C174.218 96.4735 173.532 96.2538 172.804 96.2538C172.076 96.2538 171.389 96.4735 170.744 96.9129C170.099 97.3523 169.586 97.9746 169.205 98.7803C168.825 99.586 168.635 100.52 168.635 101.581C168.635 102.643 168.825 103.577 169.205 104.383C169.586 105.188 170.099 105.811 170.744 106.25C171.389 106.689 172.076 106.909 172.804 106.909ZM187.189 109.024C185.981 109.024 184.898 108.703 183.938 108.062C182.978 107.421 182.225 106.543 181.679 105.426C181.15 104.291 180.885 103.019 180.885 101.609C180.885 100.254 181.134 99.0093 181.63 97.8741C182.143 96.7389 182.863 95.8326 183.789 95.1554C184.716 94.4781 185.791 94.1393 187.015 94.1393C188.256 94.1393 189.331 94.4507 190.241 95.073C191.151 95.6771 191.846 96.5192 192.326 97.5995C192.822 98.6798 193.07 99.9155 193.07 101.307C193.07 101.581 193.046 101.819 192.996 102.021H182.995C183.044 103.083 183.276 103.98 183.69 104.712C184.104 105.444 184.625 105.993 185.253 106.36C185.898 106.726 186.568 106.909 187.263 106.909C188.885 106.909 190.134 106.067 191.011 104.383L192.797 105.344C192.251 106.479 191.507 107.376 190.564 108.035C189.638 108.694 188.512 109.024 187.189 109.024ZM190.837 100.098C190.804 99.5125 190.655 98.9269 190.39 98.3409C190.126 97.7549 189.704 97.2606 189.125 96.858C188.562 96.4554 187.851 96.2538 186.99 96.2538C185.998 96.2538 185.154 96.6108 184.459 97.3249C183.781 98.0207 183.334 98.9451 183.119 100.098H190.837ZM195.539 94.5787H197.549V96.8305H197.648C197.897 96.0616 198.377 95.43 199.088 94.9357C199.8 94.4232 200.544 94.1668 201.321 94.1668C201.901 94.1668 202.397 94.2584 202.81 94.4414V96.9678C202.281 96.6751 201.686 96.5285 201.024 96.5285C200.412 96.5285 199.849 96.7207 199.336 97.1052C198.823 97.4896 198.41 98.0114 198.095 98.6705C197.797 99.3114 197.648 100.007 197.648 100.758V108.584H195.539V94.5787ZM215.247 109.024C213.858 109.024 212.584 108.557 211.426 107.623C210.268 106.689 209.473 105.38 209.043 103.696L211.053 102.79C211.335 103.961 211.856 104.922 212.617 105.673C213.378 106.424 214.271 106.799 215.297 106.799C216.323 106.799 217.191 106.497 217.903 105.893C218.614 105.271 218.97 104.428 218.97 103.366C218.97 102.451 218.664 101.701 218.052 101.115C217.456 100.51 216.472 99.9519 215.098 99.4394L213.982 99C212.724 98.5057 211.699 97.8559 210.904 97.0502C210.11 96.2446 209.713 95.1279 209.713 93.6999C209.713 92.7662 209.945 91.9056 210.408 91.1185C210.871 90.3128 211.516 89.6723 212.344 89.1962C213.171 88.72 214.097 88.4822 215.123 88.4822C216.149 88.4822 217.043 88.6926 217.804 89.1138C218.564 89.535 219.168 90.0475 219.615 90.6517C220.078 91.2558 220.401 91.8507 220.583 92.4367L218.598 93.3704C218.432 92.6931 218.052 92.0797 217.456 91.5304C216.877 90.9812 216.108 90.7066 215.148 90.7066C214.238 90.7066 213.461 90.9905 212.815 91.5579C212.17 92.1253 211.847 92.8393 211.847 93.6999C211.847 94.4688 212.12 95.1005 212.666 95.5948C213.212 96.0709 214.04 96.5192 215.148 96.9404L216.314 97.3798C217.82 97.9839 218.995 98.7436 219.838 99.6591C220.682 100.556 221.104 101.783 221.104 103.339C221.104 104.602 220.806 105.664 220.211 106.525C219.632 107.385 218.895 108.017 218.002 108.419C217.109 108.822 216.19 109.024 215.247 109.024ZM228.007 108.804C227.494 108.804 227.014 108.712 226.568 108.529C226.137 108.346 225.773 108.099 225.476 107.788C225.145 107.44 224.896 107.037 224.731 106.579C224.566 106.122 224.483 105.563 224.483 104.904V96.6932H222.274V94.5787H224.483V90.6242H226.592V94.5787H229.67V96.6932H226.592V104.328C226.592 105.097 226.725 105.664 226.99 106.03C227.304 106.433 227.759 106.634 228.354 106.634C228.834 106.634 229.297 106.479 229.744 106.168V108.447C229.496 108.575 229.239 108.667 228.975 108.721C228.727 108.776 228.404 108.804 228.007 108.804ZM236.822 109.024C235.3 109.024 234.134 108.529 233.323 107.541C232.529 106.552 232.132 105.17 232.132 103.394V94.5787H234.241V103.037C234.241 104.373 234.514 105.353 235.06 105.975C235.606 106.598 236.342 106.909 237.269 106.909C237.98 106.909 238.609 106.699 239.155 106.277C239.717 105.856 240.148 105.307 240.446 104.63C240.76 103.952 240.917 103.238 240.917 102.488V94.5787H243.026V108.584H241.016V106.552H240.917C240.57 107.248 240.015 107.833 239.254 108.31C238.493 108.786 237.682 109.024 236.822 109.024ZM251.381 109.024C250.256 109.024 249.231 108.703 248.304 108.062C247.394 107.421 246.675 106.543 246.145 105.426C245.615 104.291 245.351 103.009 245.351 101.581C245.351 100.172 245.615 98.8995 246.145 97.7642C246.675 96.629 247.394 95.7414 248.304 95.1004C249.231 94.4595 250.256 94.1393 251.381 94.1393C252.358 94.1393 253.226 94.3864 253.987 94.8808C254.748 95.3569 255.327 95.9518 255.724 96.6658H255.824L255.724 94.716V88.9216H257.834V108.584H255.824V106.525H255.724C255.327 107.22 254.748 107.815 253.987 108.31C253.226 108.786 252.358 109.024 251.381 109.024ZM251.629 106.909C252.374 106.909 253.06 106.689 253.689 106.25C254.335 105.811 254.847 105.188 255.228 104.383C255.625 103.577 255.824 102.643 255.824 101.581C255.824 100.52 255.625 99.586 255.228 98.7803C254.847 97.9746 254.335 97.3523 253.689 96.9129C253.06 96.4735 252.374 96.2538 251.629 96.2538C250.901 96.2538 250.215 96.4735 249.57 96.9129C248.924 97.3523 248.403 97.9839 248.006 98.8078C247.626 99.6135 247.435 100.538 247.435 101.581C247.435 102.625 247.626 103.559 248.006 104.383C248.403 105.188 248.924 105.811 249.57 106.25C250.215 106.689 250.901 106.909 251.629 106.909ZM266.462 109.024C265.254 109.024 264.17 108.703 263.211 108.062C262.251 107.421 261.499 106.543 260.953 105.426C260.423 104.291 260.158 103.019 260.158 101.609C260.158 100.254 260.407 99.0093 260.903 97.8741C261.416 96.7389 262.135 95.8326 263.062 95.1554C263.989 94.4781 265.064 94.1393 266.288 94.1393C267.529 94.1393 268.604 94.4507 269.514 95.073C270.424 95.6771 271.119 96.5192 271.599 97.5995C272.095 98.6798 272.343 99.9155 272.343 101.307C272.343 101.581 272.319 101.819 272.269 102.021H262.268C262.317 103.083 262.549 103.98 262.963 104.712C263.376 105.444 263.897 105.993 264.526 106.36C265.171 106.726 265.841 106.909 266.536 106.909C268.158 106.909 269.407 106.067 270.284 104.383L272.07 105.344C271.524 106.479 270.78 107.376 269.837 108.035C268.91 108.694 267.786 109.024 266.462 109.024ZM270.11 100.098C270.077 99.5125 269.928 98.9269 269.663 98.3409C269.399 97.7549 268.977 97.2606 268.398 96.858C267.835 96.4554 267.124 96.2538 266.263 96.2538C265.271 96.2538 264.427 96.6108 263.732 97.3249C263.054 98.0207 262.607 98.9451 262.392 100.098H270.11ZM274.812 94.5787H276.822V96.6383H276.922C277.269 95.9425 277.823 95.3569 278.584 94.8808C279.345 94.3864 280.156 94.1393 281.016 94.1393C282.539 94.1393 283.697 94.6336 284.491 95.6222C285.301 96.5927 285.707 97.9197 285.707 99.6042V108.584H283.597V99.9612C283.597 98.6612 283.316 97.7186 282.753 97.1326C282.191 96.5466 281.422 96.2538 280.445 96.2538C279.767 96.2538 279.155 96.4642 278.609 96.8855C278.08 97.3067 277.666 97.8648 277.368 98.5606C277.07 99.2379 276.922 99.9519 276.922 100.703V108.584H274.812V94.5787ZM292.957 108.804C292.444 108.804 291.964 108.712 291.518 108.529C291.088 108.346 290.723 108.099 290.426 107.788C290.095 107.44 289.847 107.037 289.681 106.579C289.516 106.122 289.433 105.563 289.433 104.904V96.6932H287.224V94.5787H289.433V90.6242H291.542V94.5787H294.62V96.6932H291.542V104.328C291.542 105.097 291.675 105.664 291.939 106.03C292.254 106.433 292.709 106.634 293.304 106.634C293.784 106.634 294.247 106.479 294.694 106.168V108.447C294.446 108.575 294.19 108.667 293.925 108.721C293.677 108.776 293.354 108.804 292.957 108.804ZM311.225 109.024C309.504 109.024 307.941 108.575 306.534 107.678C305.128 106.781 304.02 105.554 303.209 103.998C302.415 102.423 302.018 100.675 302.018 98.7529C302.018 96.8305 302.415 95.0912 303.209 93.5351C304.02 91.9605 305.128 90.7247 306.534 89.8278C307.941 88.9309 309.504 88.4822 311.225 88.4822C312.548 88.4822 313.756 88.7661 314.848 89.3335C315.956 89.8827 316.916 90.6698 317.727 91.6952L316.213 93.3154C315.534 92.4185 314.79 91.7594 313.979 91.3382C313.185 90.917 312.267 90.7066 311.225 90.7066C309.934 90.7066 308.751 91.0454 307.676 91.7227C306.6 92.3817 305.74 93.3247 305.095 94.5512C304.466 95.7595 304.152 97.1601 304.152 98.7529C304.152 100.346 304.466 101.755 305.095 102.982C305.74 104.19 306.6 105.133 307.676 105.811C308.751 106.47 309.934 106.799 311.225 106.799C313.375 106.799 315.203 105.82 316.709 103.861L318.248 105.508C317.421 106.589 316.403 107.449 315.195 108.09C313.987 108.712 312.664 109.024 311.225 109.024ZM320.617 88.9216H322.726V108.584H320.617V88.9216ZM330.442 109.024C328.92 109.024 327.754 108.529 326.943 107.541C326.149 106.552 325.752 105.17 325.752 103.394V94.5787H327.862V103.037C327.862 104.373 328.134 105.353 328.68 105.975C329.226 106.598 329.963 106.909 330.889 106.909C331.6 106.909 332.229 106.699 332.775 106.277C333.338 105.856 333.768 105.307 334.066 104.63C334.38 103.952 334.537 103.238 334.537 102.488V94.5787H336.647V108.584H334.636V106.552H334.537C334.19 107.248 333.635 107.833 332.874 108.31C332.113 108.786 331.303 109.024 330.442 109.024ZM346.19 109.024C345.23 109.024 344.362 108.786 343.584 108.31C342.823 107.815 342.252 107.22 341.871 106.525H341.772V108.584H339.762V88.9216H341.871V94.716L341.772 96.6658H341.871C342.252 95.9518 342.823 95.3569 343.584 94.8808C344.362 94.3864 345.23 94.1393 346.19 94.1393C347.315 94.1393 348.341 94.4595 349.267 95.1004C350.194 95.7414 350.922 96.629 351.451 97.7642C351.98 98.8995 352.245 100.172 352.245 101.581C352.245 103.009 351.98 104.291 351.451 105.426C350.922 106.543 350.194 107.421 349.267 108.062C348.341 108.703 347.315 109.024 346.19 109.024ZM345.941 106.909C346.67 106.909 347.356 106.689 348.001 106.25C348.646 105.811 349.16 105.188 349.54 104.383C349.937 103.559 350.135 102.625 350.135 101.581C350.135 100.538 349.937 99.6135 349.54 98.8078C349.16 97.9839 348.646 97.3523 348.001 96.9129C347.356 96.4735 346.67 96.2538 345.941 96.2538C345.214 96.2538 344.527 96.4735 343.882 96.9129C343.236 97.3523 342.724 97.9746 342.343 98.7803C341.963 99.586 341.772 100.52 341.772 101.581C341.772 102.643 341.963 103.577 342.343 104.383C342.724 105.188 343.236 105.811 343.882 106.25C344.527 106.689 345.214 106.909 345.941 106.909ZM358.987 109.024C357.63 109.024 356.497 108.676 355.587 107.98C354.677 107.266 354.032 106.36 353.651 105.261L355.538 104.328C355.852 105.17 356.315 105.82 356.927 106.277C357.556 106.735 358.243 106.964 358.987 106.964C359.781 106.964 360.46 106.79 361.022 106.442C361.585 106.076 361.866 105.563 361.866 104.904C361.866 104.318 361.642 103.851 361.196 103.504C360.749 103.137 360.046 102.826 359.086 102.57L357.548 102.131C356.539 101.856 355.711 101.389 355.066 100.73C354.421 100.071 354.098 99.2197 354.098 98.1762C354.098 97.3705 354.313 96.6658 354.743 96.0616C355.19 95.4393 355.778 94.9631 356.505 94.6336C357.233 94.3041 358.019 94.1393 358.863 94.1393C359.972 94.1393 360.956 94.4046 361.816 94.9357C362.693 95.4668 363.314 96.2082 363.677 97.1601L361.841 98.0938C361.279 96.8487 360.277 96.2264 358.838 96.2264C358.143 96.2264 357.531 96.4093 357.002 96.7756C356.489 97.1233 356.232 97.572 356.232 98.1212C356.232 98.6337 356.414 99.0549 356.778 99.3845C357.143 99.6959 357.689 99.9519 358.416 100.153L360.253 100.675C361.493 101.023 362.429 101.545 363.057 102.241C363.686 102.918 364 103.751 364 104.74C364 105.6 363.777 106.36 363.33 107.019C362.883 107.66 362.28 108.154 361.518 108.502C360.757 108.849 359.914 109.024 358.987 109.024Z" fill="white"/>
<path d="M37.3271 123.681H41.0058C42.2607 123.681 43.3507 123.971 44.2758 124.551C45.2074 125.123 45.9233 125.922 46.4238 126.948C46.9247 127.973 47.1748 129.15 47.1748 130.48C47.1748 131.816 46.9247 132.997 46.4238 134.022C45.9233 135.047 45.2074 135.85 44.2758 136.43C43.3507 137.003 42.2607 137.289 41.0058 137.289H37.3271V123.681ZM41.0058 135.751C42.4508 135.751 43.5947 135.288 44.4373 134.362C45.2864 133.435 45.711 132.141 45.711 130.48C45.711 128.825 45.2864 127.535 44.4373 126.608C43.5947 125.682 42.4508 125.219 41.0058 125.219H38.7818V135.751H41.0058ZM49.6267 137.406C49.3224 137.406 49.0658 137.289 48.857 137.055C48.6478 136.815 48.5432 136.525 48.5432 136.186C48.5432 135.853 48.6478 135.571 48.857 135.337C49.0658 135.104 49.3224 134.987 49.6267 134.987C49.9371 134.987 50.1971 135.104 50.4063 135.337C50.6152 135.571 50.7198 135.853 50.7198 136.186C50.7198 136.525 50.6152 136.815 50.4063 137.055C50.1971 137.289 49.9371 137.406 49.6267 137.406ZM59.3087 130.999L55.1834 123.681H56.8659L59.9837 129.387H60.0501L63.1205 123.681H64.8027L60.7534 130.999V137.289H59.3087V130.999ZM65.7236 137.406C65.4197 137.406 65.1631 137.289 64.9539 137.055C64.7447 136.815 64.6401 136.525 64.6401 136.186C64.6401 135.853 64.7447 135.571 64.9539 135.337C65.1631 135.104 65.4197 134.987 65.7236 134.987C66.0344 134.987 66.294 135.104 66.5032 135.337C66.7124 135.571 66.8171 135.853 66.8171 136.186C66.8171 136.525 66.7124 136.815 66.5032 137.055C66.294 137.289 66.0344 137.406 65.7236 137.406ZM73.0644 123.681H77.1706C77.8552 123.681 78.4855 123.854 79.0624 124.201C79.6454 124.54 80.1078 125.017 80.4502 125.633C80.7984 126.248 80.9729 126.941 80.9729 127.711C80.9729 128.482 80.7984 129.175 80.4502 129.79C80.1078 130.405 79.6454 130.886 79.0624 131.233C78.4855 131.572 77.8552 131.742 77.1706 131.742H74.5186V137.289H73.0644V123.681ZM77.2088 130.204C77.6585 130.204 78.0579 130.083 78.4065 129.843C78.755 129.596 79.0242 129.285 79.2144 128.91C79.4106 128.528 79.5091 128.129 79.5091 127.711C79.5091 127.294 79.4106 126.894 79.2144 126.513C79.0242 126.131 78.755 125.82 78.4065 125.579C78.0579 125.339 77.6585 125.219 77.2088 125.219H74.5186V130.204H77.2088ZM85.0257 137.596C84.3919 137.596 83.8245 137.458 83.324 137.182C82.8235 136.9 82.4367 136.515 82.1645 136.027C81.8919 135.539 81.7556 134.983 81.7556 134.362C81.7556 133.336 82.1011 132.537 82.7918 131.964C83.4889 131.385 84.3633 131.095 85.4151 131.095C85.9412 131.095 86.4261 131.158 86.8697 131.285C87.3195 131.413 87.665 131.558 87.9056 131.721V131.127C87.9056 130.405 87.6776 129.829 87.2214 129.398C86.7651 128.959 86.1917 128.74 85.501 128.74C85.0257 128.74 84.579 128.857 84.1605 129.09C83.7486 129.323 83.4221 129.649 83.1816 130.066L82.0981 129.154C82.4401 128.574 82.909 128.118 83.5046 127.786C84.1067 127.453 84.7721 127.287 85.501 127.287C86.6857 127.287 87.6112 127.633 88.2763 128.326C88.9482 129.02 89.2838 129.96 89.2838 131.148V137.289H87.9056V135.899H87.8391C87.5856 136.366 87.2088 136.765 86.7079 137.098C86.2138 137.43 85.653 137.596 85.0257 137.596ZM85.1585 136.164C85.6465 136.164 86.0997 136.027 86.5177 135.751C86.9427 135.468 87.2783 135.093 87.5257 134.626C87.7788 134.16 87.9056 133.647 87.9056 133.089C87.6333 132.884 87.2973 132.718 86.898 132.59C86.499 132.463 86.0806 132.399 85.6434 132.399C84.8451 132.399 84.243 132.583 83.8375 132.951C83.4382 133.318 83.2385 133.796 83.2385 134.383C83.2385 134.913 83.4191 135.344 83.7802 135.677C84.1479 136.002 84.6072 136.164 85.1585 136.164ZM94.461 137.437C94.1124 137.437 93.786 137.373 93.4821 137.246C93.1843 137.119 92.9307 136.949 92.7215 136.737C92.2714 136.256 92.0465 135.592 92.0465 134.743V129.058H90.5258V127.595H92.0465V124.858H93.4916V127.595H95.6205V129.058H93.4916V134.34C93.4916 134.877 93.5832 135.27 93.7673 135.517C93.9826 135.8 94.293 135.942 94.6985 135.942C95.0535 135.942 95.3735 135.832 95.6587 135.613V137.193C95.4876 137.285 95.3132 137.349 95.136 137.384C94.9585 137.419 94.7336 137.437 94.461 137.437ZM98.29 125.813C98.0113 125.813 97.7673 125.7 97.5581 125.473C97.3554 125.24 97.2542 124.964 97.2542 124.646C97.2542 124.321 97.3554 124.049 97.5581 123.829C97.7673 123.603 98.0113 123.49 98.29 123.49C98.5878 123.49 98.8352 123.603 99.0315 123.829C99.2342 124.049 99.3358 124.321 99.3358 124.646C99.3358 124.964 99.2342 125.24 99.0315 125.473C98.8352 125.7 98.5878 125.813 98.29 125.813ZM97.5772 127.595H99.0315V137.289H97.5772V127.595ZM101.294 123.681H102.739V137.289H101.294V123.681ZM114.506 137.596C113.328 137.596 112.254 137.285 111.284 136.663C110.321 136.041 109.564 135.189 109.012 134.107C108.468 133.025 108.195 131.816 108.195 130.48C108.195 129.15 108.468 127.945 109.012 126.863C109.564 125.781 110.321 124.929 111.284 124.307C112.254 123.684 113.328 123.373 114.506 123.373C115.419 123.373 116.252 123.564 117.006 123.946C117.76 124.328 118.416 124.88 118.974 125.601L117.938 126.725C117.469 126.103 116.959 125.646 116.408 125.357C115.856 125.06 115.223 124.911 114.506 124.911C113.626 124.911 112.815 125.145 112.073 125.611C111.338 126.071 110.752 126.725 110.315 127.573C109.878 128.415 109.659 129.383 109.659 130.48C109.659 131.582 109.878 132.558 110.315 133.407C110.752 134.248 111.338 134.902 112.073 135.369C112.815 135.828 113.626 136.058 114.506 136.058C115.983 136.058 117.241 135.38 118.28 134.022L119.335 135.157C118.778 135.907 118.081 136.5 117.244 136.939C116.408 137.377 115.495 137.596 114.506 137.596ZM124.782 137.596C123.933 137.596 123.166 137.37 122.482 136.918C121.804 136.458 121.275 135.836 120.895 135.051C120.514 134.259 120.324 133.389 120.324 132.442C120.324 131.494 120.514 130.628 120.895 129.843C121.275 129.051 121.804 128.429 122.482 127.976C123.166 127.517 123.933 127.287 124.782 127.287C125.632 127.287 126.395 127.517 127.073 127.976C127.757 128.429 128.29 129.051 128.67 129.843C129.057 130.628 129.25 131.494 129.25 132.442C129.25 133.389 129.057 134.259 128.67 135.051C128.29 135.836 127.757 136.458 127.073 136.918C126.395 137.37 125.632 137.596 124.782 137.596ZM124.782 136.133C125.315 136.133 125.809 135.984 126.265 135.687C126.728 135.383 127.098 134.956 127.377 134.404C127.656 133.845 127.796 133.191 127.796 132.442C127.796 131.692 127.656 131.042 127.377 130.49C127.098 129.932 126.728 129.504 126.265 129.207C125.809 128.903 125.315 128.751 124.782 128.751C124.25 128.751 123.749 128.903 123.28 129.207C122.818 129.504 122.447 129.932 122.168 130.49C121.89 131.042 121.75 131.692 121.75 132.442C121.75 133.191 121.89 133.845 122.168 134.404C122.447 134.956 122.818 135.383 123.28 135.687C123.749 135.984 124.25 136.133 124.782 136.133ZM130.848 123.681H132.292V137.289H130.848V123.681ZM134.441 123.681H135.887V137.289H134.441V123.681ZM141.819 137.596C140.989 137.596 140.245 137.373 139.585 136.928C138.926 136.483 138.413 135.871 138.046 135.093C137.678 134.315 137.494 133.439 137.494 132.463C137.494 131.537 137.665 130.677 138.007 129.886C138.356 129.094 138.85 128.464 139.49 127.998C140.131 127.524 140.866 127.287 141.696 127.287C142.551 127.287 143.29 127.499 143.91 127.923C144.538 128.348 145.016 128.935 145.346 129.684C145.682 130.434 145.85 131.289 145.85 132.251C145.85 132.406 145.84 132.572 145.821 132.749H138.939C138.971 133.484 139.129 134.107 139.414 134.616C139.7 135.118 140.061 135.496 140.498 135.751C140.935 136.005 141.392 136.133 141.867 136.133C143.001 136.133 143.86 135.549 144.443 134.383L145.669 135.051C145.302 135.822 144.795 136.44 144.148 136.907C143.502 137.367 142.726 137.596 141.819 137.596ZM144.319 131.413C144.3 131.01 144.199 130.607 144.015 130.204C143.831 129.794 143.546 129.451 143.16 129.175C142.773 128.892 142.285 128.751 141.696 128.751C141.018 128.751 140.438 128.995 139.956 129.483C139.481 129.971 139.17 130.614 139.025 131.413H144.319ZM151.438 141.701C150.417 141.701 149.574 141.432 148.909 140.895C148.244 140.365 147.8 139.725 147.578 138.975L148.9 138.349C149.083 138.908 149.4 139.36 149.85 139.707C150.3 140.06 150.829 140.237 151.438 140.237C152.337 140.237 153.035 139.944 153.529 139.357C154.023 138.777 154.27 137.954 154.27 136.885V135.804H154.204C153.918 136.299 153.516 136.702 152.996 137.013C152.483 137.324 151.897 137.479 151.238 137.479C150.49 137.479 149.806 137.264 149.185 136.833C148.564 136.401 148.073 135.8 147.712 135.029C147.35 134.252 147.169 133.372 147.169 132.389C147.169 131.413 147.35 130.536 147.712 129.758C148.073 128.974 148.564 128.365 149.185 127.934C149.806 127.503 150.49 127.287 151.238 127.287C151.897 127.287 152.483 127.442 152.996 127.754C153.516 128.065 153.918 128.475 154.204 128.984H154.27V127.595H155.648V136.907C155.648 138.469 155.262 139.657 154.489 140.471C153.716 141.291 152.699 141.701 151.438 141.701ZM151.438 136.016C151.964 136.016 152.439 135.871 152.864 135.581C153.288 135.291 153.627 134.874 153.881 134.329C154.14 133.778 154.27 133.131 154.27 132.389C154.27 131.625 154.14 130.971 153.881 130.426C153.627 129.882 153.288 129.468 152.864 129.186C152.439 128.896 151.964 128.751 151.438 128.751C150.918 128.751 150.443 128.899 150.012 129.196C149.581 129.486 149.235 129.903 148.976 130.448C148.722 130.992 148.595 131.639 148.595 132.389C148.595 133.131 148.722 133.778 148.976 134.329C149.235 134.881 149.581 135.302 150.012 135.592C150.443 135.874 150.918 136.016 151.438 136.016ZM161.579 137.596C160.748 137.596 160.004 137.373 159.345 136.928C158.686 136.483 158.172 135.871 157.805 135.093C157.437 134.315 157.254 133.439 157.254 132.463C157.254 131.537 157.425 130.677 157.767 129.886C158.116 129.094 158.61 128.464 159.25 127.998C159.89 127.524 160.625 127.287 161.455 127.287C162.311 127.287 163.049 127.499 163.67 127.923C164.297 128.348 164.776 128.935 165.105 129.684C165.441 130.434 165.609 131.289 165.609 132.251C165.609 132.406 165.599 132.572 165.58 132.749H158.699C158.73 133.484 158.889 134.107 159.174 134.616C159.459 135.118 159.82 135.496 160.257 135.751C160.695 136.005 161.151 136.133 161.626 136.133C162.76 136.133 163.619 135.549 164.202 134.383L165.428 135.051C165.061 135.822 164.554 136.44 163.907 136.907C163.261 137.367 162.485 137.596 161.579 137.596ZM164.078 131.413C164.06 131.01 163.958 130.607 163.774 130.204C163.59 129.794 163.306 129.451 162.919 129.175C162.533 128.892 162.045 128.751 161.455 128.751C160.777 128.751 160.197 128.995 159.716 129.483C159.24 129.971 158.93 130.614 158.784 131.413H164.078ZM175.254 137.596C174.404 137.596 173.638 137.37 172.953 136.918C172.275 136.458 171.746 135.836 171.366 135.051C170.985 134.259 170.796 133.389 170.796 132.442C170.796 131.494 170.985 130.628 171.366 129.843C171.746 129.051 172.275 128.429 172.953 127.976C173.638 127.517 174.404 127.287 175.254 127.287C176.103 127.287 176.866 127.517 177.544 127.976C178.229 128.429 178.761 129.051 179.141 129.843C179.528 130.628 179.721 131.494 179.721 132.442C179.721 133.389 179.528 134.259 179.141 135.051C178.761 135.836 178.229 136.458 177.544 136.918C176.866 137.37 176.103 137.596 175.254 137.596ZM175.254 136.133C175.786 136.133 176.28 135.984 176.736 135.687C177.199 135.383 177.57 134.956 177.849 134.404C178.127 133.845 178.267 133.191 178.267 132.442C178.267 131.692 178.127 131.042 177.849 130.49C177.57 129.932 177.199 129.504 176.736 129.207C176.28 128.903 175.786 128.751 175.254 128.751C174.721 128.751 174.221 128.903 173.752 129.207C173.289 129.504 172.919 129.932 172.639 130.49C172.361 131.042 172.221 131.692 172.221 132.442C172.221 133.191 172.361 133.845 172.639 134.404C172.919 134.956 173.289 135.383 173.752 135.687C174.221 135.984 174.721 136.133 175.254 136.133ZM182.156 129.058H180.549V127.595H182.156V126.555C182.156 125.94 182.28 125.406 182.527 124.954C182.774 124.494 183.107 124.144 183.525 123.904C183.949 123.656 184.418 123.532 184.932 123.532C185.42 123.532 185.844 123.607 186.205 123.755V125.335C186.003 125.243 185.809 125.169 185.625 125.113C185.448 125.056 185.233 125.028 184.979 125.028C184.605 125.028 184.282 125.176 184.01 125.473C183.737 125.77 183.601 126.188 183.601 126.725V127.595H185.835V129.058H183.601V137.289H182.156V129.058ZM191.841 123.681H198.894V125.219H193.296V129.726H198.353V131.243H193.296V135.751H198.894V137.289H191.841V123.681ZM200.772 127.595H202.15V129.016H202.216C202.457 128.535 202.837 128.129 203.357 127.796C203.883 127.457 204.441 127.287 205.03 127.287C206.076 127.287 206.874 127.627 207.425 128.305C207.977 128.984 208.252 129.907 208.252 131.073V137.289H206.798V131.318C206.798 130.419 206.605 129.769 206.218 129.366C205.832 128.956 205.305 128.751 204.64 128.751C204.171 128.751 203.753 128.899 203.385 129.196C203.018 129.486 202.729 129.868 202.521 130.342C202.318 130.816 202.216 131.314 202.216 131.837V137.289H200.772V127.595ZM214.054 141.701C213.034 141.701 212.191 141.432 211.526 140.895C210.86 140.365 210.417 139.725 210.195 138.975L211.516 138.349C211.7 138.908 212.017 139.36 212.466 139.707C212.917 140.06 213.446 140.237 214.054 140.237C214.954 140.237 215.651 139.944 216.145 139.357C216.639 138.777 216.886 137.954 216.886 136.885V135.804H216.82C216.535 136.299 216.132 136.702 215.613 137.013C215.1 137.324 214.513 137.479 213.854 137.479C213.107 137.479 212.422 137.264 211.801 136.833C211.18 136.401 210.689 135.8 210.328 135.029C209.966 134.252 209.786 133.372 209.786 132.389C209.786 131.413 209.966 130.536 210.328 129.758C210.689 128.974 211.18 128.365 211.801 127.934C212.422 127.503 213.107 127.287 213.854 127.287C214.513 127.287 215.1 127.442 215.613 127.754C216.132 128.065 216.535 128.475 216.82 128.984H216.886V127.595H218.265V136.907C218.265 138.469 217.878 139.657 217.105 140.471C216.332 141.291 215.315 141.701 214.054 141.701ZM214.054 136.016C214.58 136.016 215.055 135.871 215.48 135.581C215.904 135.291 216.244 134.874 216.497 134.329C216.757 133.778 216.886 133.131 216.886 132.389C216.886 131.625 216.757 130.971 216.497 130.426C216.244 129.882 215.904 129.468 215.48 129.186C215.055 128.896 214.58 128.751 214.054 128.751C213.534 128.751 213.059 128.899 212.628 129.196C212.197 129.486 211.852 129.903 211.592 130.448C211.339 130.992 211.212 131.639 211.212 132.389C211.212 133.131 211.339 133.778 211.592 134.329C211.852 134.881 212.197 135.302 212.628 135.592C213.059 135.874 213.534 136.016 214.054 136.016ZM221.257 125.813C220.979 125.813 220.735 125.7 220.525 125.473C220.323 125.24 220.221 124.964 220.221 124.646C220.221 124.321 220.323 124.049 220.525 123.829C220.735 123.603 220.979 123.49 221.257 123.49C221.555 123.49 221.802 123.603 221.999 123.829C222.202 124.049 222.303 124.321 222.303 124.646C222.303 124.964 222.202 125.24 221.999 125.473C221.802 125.7 221.555 125.813 221.257 125.813ZM220.544 127.595H221.999V137.289H220.544V127.595ZM224.261 127.595H225.64V129.016H225.706C225.947 128.535 226.327 128.129 226.847 127.796C227.373 127.457 227.93 127.287 228.519 127.287C229.565 127.287 230.363 127.627 230.915 128.305C231.466 128.984 231.742 129.907 231.742 131.073V137.289H230.288V131.318C230.288 130.419 230.094 129.769 229.708 129.366C229.321 128.956 228.795 128.751 228.13 128.751C227.661 128.751 227.243 128.899 226.875 129.196C226.508 129.486 226.219 129.868 226.01 130.342C225.808 130.816 225.706 131.314 225.706 131.837V137.289H224.261V127.595ZM237.686 137.596C236.856 137.596 236.111 137.373 235.452 136.928C234.793 136.483 234.28 135.871 233.912 135.093C233.545 134.315 233.361 133.439 233.361 132.463C233.361 131.537 233.532 130.677 233.874 129.886C234.223 129.094 234.717 128.464 235.357 127.998C235.997 127.524 236.732 127.287 237.562 127.287C238.418 127.287 239.156 127.499 239.777 127.923C240.404 128.348 240.883 128.935 241.212 129.684C241.548 130.434 241.716 131.289 241.716 132.251C241.716 132.406 241.707 132.572 241.688 132.749H234.806C234.837 133.484 234.996 134.107 235.281 134.616C235.566 135.118 235.927 135.496 236.365 135.751C236.802 136.005 237.258 136.133 237.733 136.133C238.868 136.133 239.726 135.549 240.309 134.383L241.536 135.051C241.168 135.822 240.661 136.44 240.015 136.907C239.368 137.367 238.592 137.596 237.686 137.596ZM240.186 131.413C240.167 131.01 240.065 130.607 239.882 130.204C239.698 129.794 239.413 129.451 239.026 129.175C238.64 128.892 238.152 128.751 237.562 128.751C236.884 128.751 236.304 128.995 235.823 129.483C235.347 129.971 235.037 130.614 234.891 131.413H240.186ZM247.361 137.596C246.531 137.596 245.787 137.373 245.127 136.928C244.468 136.483 243.955 135.871 243.587 135.093C243.22 134.315 243.036 133.439 243.036 132.463C243.036 131.537 243.207 130.677 243.55 129.886C243.898 129.094 244.392 128.464 245.032 127.998C245.672 127.524 246.407 127.287 247.237 127.287C248.093 127.287 248.831 127.499 249.452 127.923C250.08 128.348 250.558 128.935 250.888 129.684C251.223 130.434 251.391 131.289 251.391 132.251C251.391 132.406 251.382 132.572 251.363 132.749H244.481C244.512 133.484 244.671 134.107 244.956 134.616C245.241 135.118 245.602 135.496 246.04 135.751C246.477 136.005 246.933 136.133 247.409 136.133C248.543 136.133 249.402 135.549 249.985 134.383L251.211 135.051C250.843 135.822 250.336 136.44 249.69 136.907C249.044 137.367 248.267 137.596 247.361 137.596ZM249.861 131.413C249.842 131.01 249.741 130.607 249.557 130.204C249.373 129.794 249.088 129.451 248.702 129.175C248.315 128.892 247.827 128.751 247.237 128.751C246.559 128.751 245.98 128.995 245.498 129.483C245.023 129.971 244.712 130.614 244.566 131.413H249.861ZM253.082 127.595H254.461V129.154H254.527C254.698 128.623 255.028 128.185 255.516 127.839C256.004 127.485 256.514 127.308 257.046 127.308C257.445 127.308 257.788 127.372 258.073 127.499V129.249C257.712 129.044 257.303 128.941 256.847 128.941C256.428 128.941 256.042 129.076 255.687 129.344C255.338 129.613 255.057 129.974 254.841 130.426C254.632 130.872 254.527 131.353 254.527 131.869V137.289H253.082V127.595ZM260.316 125.813C260.037 125.813 259.793 125.7 259.584 125.473C259.382 125.24 259.28 124.964 259.28 124.646C259.28 124.321 259.382 124.049 259.584 123.829C259.793 123.603 260.037 123.49 260.316 123.49C260.614 123.49 260.861 123.603 261.058 123.829C261.26 124.049 261.362 124.321 261.362 124.646C261.362 124.964 261.26 125.24 261.058 125.473C260.861 125.7 260.614 125.813 260.316 125.813ZM259.603 127.595H261.058V137.289H259.603V127.595ZM263.32 127.595H264.698V129.016H264.764C265.005 128.535 265.386 128.129 265.905 127.796C266.431 127.457 266.989 127.287 267.578 127.287C268.624 127.287 269.422 127.627 269.974 128.305C270.525 128.984 270.801 129.907 270.801 131.073V137.289H269.346V131.318C269.346 130.419 269.153 129.769 268.766 129.366C268.38 128.956 267.854 128.751 267.188 128.751C266.72 128.751 266.301 128.899 265.934 129.196C265.566 129.486 265.278 129.868 265.069 130.342C264.866 130.816 264.764 131.314 264.764 131.837V137.289H263.32V127.595ZM276.602 141.701C275.582 141.701 274.739 141.432 274.074 140.895C273.408 140.365 272.965 139.725 272.743 138.975L274.064 138.349C274.248 138.908 274.565 139.36 275.015 139.707C275.465 140.06 275.994 140.237 276.602 140.237C277.502 140.237 278.199 139.944 278.694 139.357C279.188 138.777 279.435 137.954 279.435 136.885V135.804H279.369C279.083 136.299 278.681 136.702 278.161 137.013C277.648 137.324 277.062 137.479 276.403 137.479C275.655 137.479 274.971 137.264 274.349 136.833C273.729 136.401 273.237 135.8 272.876 135.029C272.515 134.252 272.334 133.372 272.334 132.389C272.334 131.413 272.515 130.536 272.876 129.758C273.237 128.974 273.729 128.365 274.349 127.934C274.971 127.503 275.655 127.287 276.403 127.287C277.062 127.287 277.648 127.442 278.161 127.754C278.681 128.065 279.083 128.475 279.369 128.984H279.435V127.595H280.813V136.907C280.813 138.469 280.426 139.657 279.653 140.471C278.881 141.291 277.863 141.701 276.602 141.701ZM276.602 136.016C277.128 136.016 277.603 135.871 278.028 135.581C278.453 135.291 278.792 134.874 279.045 134.329C279.305 133.778 279.435 133.131 279.435 132.389C279.435 131.625 279.305 130.971 279.045 130.426C278.792 129.882 278.453 129.468 278.028 129.186C277.603 128.896 277.128 128.751 276.602 128.751C276.083 128.751 275.607 128.899 275.176 129.196C274.746 129.486 274.4 129.903 274.14 130.448C273.887 130.992 273.76 131.639 273.76 132.389C273.76 133.131 273.887 133.778 274.14 134.329C274.4 134.881 274.746 135.302 275.176 135.592C275.607 135.874 276.083 136.016 276.602 136.016ZM282.941 130.734H288.34V132.06H282.941V130.734ZM290.757 123.681H294.863C295.547 123.681 296.178 123.854 296.755 124.201C297.338 124.54 297.8 125.017 298.143 125.633C298.491 126.248 298.666 126.941 298.666 127.711C298.666 128.482 298.491 129.175 298.143 129.79C297.8 130.405 297.338 130.886 296.755 131.233C296.178 131.572 295.547 131.742 294.863 131.742H292.211V137.289H290.757V123.681ZM294.901 130.204C295.351 130.204 295.75 130.083 296.099 129.843C296.447 129.596 296.717 129.285 296.907 128.91C297.103 128.528 297.201 128.129 297.201 127.711C297.201 127.294 297.103 126.894 296.907 126.513C296.717 126.131 296.447 125.82 296.099 125.579C295.75 125.339 295.351 125.219 294.901 125.219H292.211V130.204H294.901ZM303.259 137.596C302.22 137.596 301.424 137.253 300.873 136.567C300.322 135.882 300.046 134.923 300.046 133.693V127.595H301.491V133.449C301.491 134.375 301.678 135.054 302.052 135.486C302.426 135.917 302.933 136.133 303.573 136.133C304.061 136.133 304.495 135.988 304.875 135.698C305.255 135.401 305.55 135.019 305.759 134.552C305.968 134.086 306.073 133.59 306.073 133.067V127.595H307.518V137.289H306.139V135.878H306.073C305.832 136.359 305.452 136.765 304.932 137.098C304.412 137.43 303.855 137.596 303.259 137.596ZM309.669 127.595H311.047V129.016H311.114C311.355 128.535 311.735 128.129 312.254 127.796C312.78 127.457 313.338 127.287 313.927 127.287C314.973 127.287 315.771 127.627 316.323 128.305C316.874 128.984 317.15 129.907 317.15 131.073V137.289H315.695V131.318C315.695 130.419 315.502 129.769 315.115 129.366C314.729 128.956 314.203 128.751 313.538 128.751C313.068 128.751 312.65 128.899 312.283 129.196C311.915 129.486 311.627 129.868 311.418 130.342C311.215 130.816 311.114 131.314 311.114 131.837V137.289H309.669V127.595ZM323.094 137.596C322.263 137.596 321.519 137.373 320.86 136.928C320.201 136.483 319.687 135.871 319.32 135.093C318.952 134.315 318.769 133.439 318.769 132.463C318.769 131.537 318.94 130.677 319.282 129.886C319.63 129.094 320.125 128.464 320.765 127.998C321.405 127.524 322.14 127.287 322.97 127.287C323.826 127.287 324.564 127.499 325.185 127.923C325.812 128.348 326.29 128.935 326.62 129.684C326.956 130.434 327.124 131.289 327.124 132.251C327.124 132.406 327.114 132.572 327.095 132.749H320.213C320.245 133.484 320.404 134.107 320.689 134.616C320.974 135.118 321.335 135.496 321.772 135.751C322.209 136.005 322.666 136.133 323.141 136.133C324.275 136.133 325.134 135.549 325.717 134.383L326.943 135.051C326.576 135.822 326.069 136.44 325.422 136.907C324.776 137.367 324 137.596 323.094 137.596ZM325.593 131.413C325.575 131.01 325.473 130.607 325.289 130.204C325.105 129.794 324.821 129.451 324.434 129.175C324.047 128.892 323.559 128.751 322.97 128.751C322.292 128.751 321.712 128.995 321.23 129.483C320.755 129.971 320.445 130.614 320.299 131.413H325.593Z" fill="#C7C7C7"/>
<path d="M200.365 57.873L228.88 39.1898C232.765 36.6443 234.049 31.0955 231.749 26.7964C229.448 22.4972 224.434 21.0756 220.549 23.6212L192.034 42.3044C188.149 44.85 186.865 50.3987 189.165 54.6978C191.465 58.997 196.48 60.4186 200.365 57.873Z" fill="#F4B400"/>
<path d="M220.93 38.8609L192.415 20.1777C188.53 17.6322 187.246 12.0835 189.546 7.7843C191.846 3.48515 196.861 2.06357 200.746 4.60912L229.261 23.2923C233.146 25.8379 234.43 31.3866 232.13 35.6858C229.83 39.9849 224.815 41.4065 220.93 38.8609Z" fill="#0F9D58"/>
<path d="M143.342 38.8609L171.857 20.1777C175.742 17.6322 177.027 12.0835 174.726 7.7843C172.426 3.48514 167.411 2.06356 163.526 4.60911L135.012 23.2923C131.127 25.8379 129.842 31.3866 132.142 35.6858C134.443 39.9849 139.457 41.4065 143.342 38.8609Z" fill="#EA4335"/>
<path d="M163.144 57.873L134.629 39.1898C130.744 36.6443 129.46 31.0955 131.76 26.7964C134.06 22.4972 139.075 21.0757 142.96 23.6212L171.474 42.3044C175.359 44.85 176.644 50.3987 174.344 54.6978C172.043 58.997 167.029 60.4186 163.144 57.873Z" fill="#4285F5"/>
</svg>
