<svg width="500" height="400" viewBox="0 0 500 400" fill="none" xmlns="http://www.w3.org/2000/svg">
<g clipPath="url(#clip0_1233_134)">
<g clipPath="url(#clip1_1233_134)">
<path d="M109 18H45C40.6 18 37.04 21.6 37.04 26L37 66C37 70.4 40.6 74 45 74H109C113.4 74 117 70.4 117 66V26C117 21.6 113.4 18 109 18ZM73 30H81V38H73V30ZM73 42H81V50H73V42ZM61 30H69V38H61V30ZM61 42H69V50H61V42ZM57 50H49V42H57V50ZM57 38H49V30H57V38ZM93 66H61V58H93V66ZM93 50H85V42H93V50ZM93 38H85V30H93V38ZM105 50H97V42H105V50ZM105 38H97V30H105V38Z" fill="white"/>
</g>
<g clipPath="url(#clip2_1233_134)">
<path d="M464.512 32.2647C464.281 31.4357 463.986 30.6029 463.617 29.7402C463.259 28.9037 462.849 28.0895 462.383 27.3611L465.922 20.9599C466.236 20.3926 466.065 19.6308 465.554 19.231L456.821 12.6992C456.261 12.2583 455.529 12.355 455.032 12.784L449.858 17.967C448.126 17.5329 446.382 17.2891 444.572 17.3216L440.789 11.0841C440.416 10.5014 439.703 10.2807 439.076 10.5491L429.037 14.8443C428.41 15.1128 428.103 15.7697 428.267 16.4419L430.167 23.4848C428.893 24.7721 427.85 26.2389 426.983 27.7542L419.661 27.9178C418.997 27.9548 418.433 28.4435 418.365 29.1529L417.085 39.9687C417.007 40.6519 417.402 41.2868 418.081 41.4291L425.156 43.289C425.36 44.1292 425.625 45.0367 425.972 45.8471C426.319 46.6575 426.74 47.4979 427.206 48.2262L423.667 54.6274C423.353 55.1947 423.524 55.9565 424.035 56.3563L432.768 62.8881C433.328 63.329 434.06 63.2324 434.557 62.8033L439.731 57.6203C441.463 58.0545 443.206 58.2982 445.017 58.2657L448.8 64.5033C449.199 65.0748 449.886 65.3067 450.513 65.0382L460.552 60.743C461.179 60.4746 461.512 59.8065 461.322 59.1455L459.422 52.1026C460.696 50.8152 461.75 49.3746 462.606 47.8331L469.928 47.6695C470.592 47.6326 471.156 47.1438 471.224 46.4345L472.53 35.6075C472.597 34.8981 472.187 34.3005 471.534 34.147L464.512 32.2647ZM448.821 47.205C443.645 49.4197 437.598 46.9966 435.383 41.8204C433.168 36.6442 435.592 30.597 440.768 28.3823C445.944 26.1676 451.991 28.5907 454.206 33.7669C456.421 38.9432 453.997 44.9903 448.821 47.205Z" fill="white"/>
</g>
<path d="M414.803 336.444V341.852H420.21C420.21 338.86 417.795 336.444 414.803 336.444ZM414.803 329.234V332.839C419.778 332.839 423.815 336.877 423.815 341.852H427.42C427.42 334.876 421.778 329.234 414.803 329.234ZM447.247 316.617H422.013V319.555C429.15 321.862 434.792 327.504 437.099 334.642H447.247V316.617ZM414.803 322.025V325.63C423.761 325.63 431.025 332.894 431.025 341.852H434.63C434.63 330.893 425.744 322.025 414.803 322.025ZM450.852 309.407H418.408C416.425 309.407 414.803 311.029 414.803 313.012V318.42H418.408V313.012H450.852V338.247H438.235V341.852H450.852C452.835 341.852 454.457 340.23 454.457 338.247V313.012C454.457 311.029 452.835 309.407 450.852 309.407Z" fill="white"/>
<g clipPath="url(#clip3_1233_134)">
<path d="M324.401 348.715L297.374 341.438C296.547 341.216 295.666 341.331 294.923 341.758C294.181 342.185 293.639 342.89 293.416 343.717L287.539 365.546C287.317 366.373 287.432 367.255 287.859 367.997C288.286 368.739 288.991 369.281 289.818 369.504L316.845 376.78C317.672 377.003 318.553 376.888 319.296 376.461C320.038 376.033 320.58 375.329 320.803 374.502L326.68 352.673C326.902 351.845 326.787 350.964 326.36 350.222C325.932 349.479 325.228 348.937 324.401 348.715ZM321.482 351.273L323.561 351.833L323.001 353.912L320.922 353.352L321.482 351.273ZM318.364 350.434L320.443 350.993L319.883 353.072L317.804 352.513L318.364 350.434ZM315.245 349.594L317.324 350.154L316.765 352.233L314.686 351.673L315.245 349.594ZM318.724 373.942C318.649 374.218 318.469 374.452 318.221 374.595C317.974 374.737 317.68 374.776 317.404 374.701L290.378 367.425C290.102 367.351 289.867 367.17 289.725 366.923C289.582 366.675 289.544 366.381 289.618 366.106L294.096 349.474L323.201 357.31L318.724 373.942Z" fill="white"/>
<path d="M303.209 354.42L295.821 358.674C295.582 358.822 295.41 359.058 295.343 359.331C295.306 359.468 295.295 359.611 295.313 359.751C295.331 359.892 295.376 360.027 295.446 360.151L299.701 367.534L301.567 366.464L297.848 360.006L304.305 356.293L303.209 354.42ZM312.835 357.012L310.968 358.087L314.688 364.539L308.23 368.258L309.306 370.119L316.693 365.871C316.934 365.722 317.106 365.484 317.172 365.208C317.246 364.934 317.209 364.641 317.068 364.394L312.835 357.012Z" fill="white"/>
<path d="M308.284 355.862L302.186 368.158L304.114 369.115L310.212 356.819L308.284 355.862Z" fill="white"/>
</g>
<g clipPath="url(#clip4_1233_134)">
<path fillRule="evenodd" clipRule="evenodd" d="M413.386 169.088C411.463 170.284 410.796 172.8 411.977 174.699L439.423 218.819C440.604 220.717 443.156 221.231 445.078 220.035L477.066 200.136C478.989 198.94 479.656 196.424 478.475 194.525L477.683 193.252C477.668 193.228 477.66 193.2 477.644 193.174L471.656 183.549C471.633 183.51 471.606 183.473 471.578 183.437L455.781 158.044C455.708 157.926 455.612 157.824 455.499 157.744C455.385 157.665 455.257 157.609 455.121 157.581L438.126 154.032C437.868 153.978 437.599 154.025 437.375 154.165L413.386 169.088ZM414.467 170.825L438.109 156.118L438.221 156.142L442.38 162.828C442.845 163.575 443.331 164.303 444.106 164.781C444.881 165.262 446.027 165.271 446.961 164.69L454.567 159.958L469.353 183.726L433.771 205.86L413.714 173.618C413.141 172.696 413.436 171.466 414.467 170.825ZM440.927 156.706L452.217 159.065L445.904 162.991C445.427 163.288 445.413 163.236 445.158 163.079C444.904 162.921 444.491 162.434 444.079 161.772L440.927 156.706ZM435.506 176.521L435.508 176.525C433.64 177.687 433.062 180.166 434.224 182.034L435.281 183.732C435.876 184.688 435.593 185.893 434.639 186.487C434.438 186.608 434.286 186.797 434.21 187.019C434.133 187.241 434.138 187.483 434.222 187.703C434.283 187.858 434.382 187.996 434.51 188.104C434.638 188.212 434.79 188.286 434.954 188.319C435.019 188.332 435.084 188.338 435.15 188.338C435.252 188.339 435.353 188.324 435.449 188.293C435.513 188.275 435.575 188.25 435.634 188.219C435.654 188.207 435.674 188.195 435.693 188.182C436.648 187.588 437.853 187.868 438.448 188.824L439.504 190.522C440.666 192.39 443.146 192.968 445.014 191.805C445.239 191.665 445.399 191.442 445.459 191.183C445.52 190.925 445.475 190.653 445.335 190.428C445.194 190.203 444.971 190.043 444.712 189.982C444.454 189.922 444.182 189.967 443.957 190.107C443.001 190.702 441.797 190.422 441.203 189.465L440.146 187.767C439.514 186.752 438.486 186.132 437.383 185.953C437.554 185.409 437.607 184.835 437.537 184.269C437.467 183.703 437.276 183.158 436.977 182.673L435.921 180.974C435.326 180.018 435.606 178.814 436.562 178.22C436.788 178.08 436.948 177.856 437.008 177.597C437.068 177.339 437.023 177.068 436.883 176.842C436.743 176.617 436.519 176.457 436.261 176.397C436.003 176.336 435.731 176.381 435.506 176.521ZM442.187 172.37C441.969 172.521 441.82 172.753 441.773 173.015C441.726 173.276 441.785 173.546 441.937 173.764C442.088 173.982 442.32 174.131 442.581 174.178C442.843 174.225 443.112 174.166 443.33 174.014C444.286 173.42 445.49 173.7 446.085 174.656L447.141 176.354C447.774 177.372 448.801 177.988 449.904 178.168C449.579 179.235 449.679 180.433 450.311 181.449L451.367 183.147C451.962 184.103 451.681 185.307 450.725 185.902C450.5 186.042 450.34 186.266 450.279 186.524C450.219 186.782 450.264 187.054 450.404 187.279C450.544 187.504 450.768 187.665 451.026 187.725C451.285 187.785 451.556 187.74 451.782 187.6C453.65 186.438 454.227 183.959 453.065 182.091L452.009 180.393C451.414 179.436 451.696 178.232 452.651 177.638C452.853 177.516 453.005 177.327 453.081 177.104C453.092 177.07 453.101 177.037 453.108 177.002C453.152 176.809 453.137 176.607 453.065 176.422C452.994 176.237 452.869 176.078 452.707 175.964C452.545 175.85 452.352 175.787 452.154 175.783C451.956 175.778 451.761 175.833 451.594 175.94C450.64 176.533 449.434 176.254 448.839 175.298L447.783 173.6C446.621 171.732 444.142 171.154 442.274 172.316C442.245 172.332 442.215 172.351 442.187 172.37ZM441 177.81C440.774 177.95 440.614 178.174 440.554 178.432C440.494 178.691 440.539 178.962 440.679 179.187C440.819 179.413 441.043 179.573 441.301 179.633C441.559 179.693 441.831 179.648 442.056 179.508C442.281 179.368 442.441 179.144 442.502 178.886C442.562 178.628 442.517 178.356 442.377 178.131C442.237 177.906 442.013 177.745 441.755 177.685C441.496 177.625 441.225 177.67 441 177.81ZM443.092 181.205C442.87 181.348 442.714 181.574 442.657 181.832C442.601 182.091 442.649 182.361 442.791 182.584L445.961 187.679C446.101 187.904 446.325 188.064 446.583 188.124C446.841 188.184 447.113 188.14 447.338 187.999C447.563 187.859 447.724 187.636 447.784 187.377C447.844 187.119 447.799 186.847 447.659 186.622L444.49 181.527C444.42 181.413 444.329 181.314 444.221 181.235C444.112 181.157 443.989 181.101 443.859 181.071C443.729 181.041 443.594 181.037 443.462 181.06C443.331 181.083 443.205 181.132 443.092 181.205ZM434.962 207.626L470.412 185.573L475.839 194.297C476.901 196.004 476.515 197.966 475.19 198.79L444.707 217.753C443.382 218.577 441.451 218.058 440.388 216.35L434.962 207.626ZM463.9 191.829L463.906 191.839C463.876 191.856 463.848 191.874 463.82 191.893C463.711 191.97 463.618 192.068 463.548 192.181C463.477 192.294 463.43 192.42 463.409 192.552C463.388 192.684 463.394 192.818 463.425 192.947C463.457 193.077 463.514 193.199 463.594 193.306L467.781 200.038C467.921 200.263 468.145 200.423 468.403 200.483C468.662 200.543 468.933 200.499 469.159 200.358C469.384 200.218 469.544 199.995 469.604 199.736C469.664 199.478 469.62 199.206 469.479 198.981L466.838 194.736L473.311 197.257C473.312 197.256 473.313 197.256 473.314 197.255L473.356 197.269C473.552 197.347 473.768 197.361 473.973 197.308C474.177 197.256 474.36 197.14 474.495 196.978C474.629 196.815 474.709 196.614 474.723 196.404C474.736 196.193 474.683 195.984 474.57 195.805L470.357 189.033C470.288 188.918 470.197 188.818 470.088 188.739C469.98 188.66 469.857 188.603 469.726 188.573C469.596 188.543 469.46 188.539 469.328 188.562C469.196 188.585 469.07 188.634 468.958 188.707C468.847 188.778 468.752 188.87 468.677 188.978C468.602 189.086 468.55 189.207 468.522 189.336C468.494 189.464 468.492 189.597 468.515 189.726C468.539 189.855 468.588 189.979 468.659 190.089L471.289 194.318L464.767 191.777C464.628 191.72 464.478 191.695 464.328 191.704C464.177 191.713 464.031 191.756 463.9 191.829ZM441.796 205.617L441.798 205.621C441.575 205.764 441.418 205.99 441.362 206.249C441.306 206.508 441.355 206.778 441.498 207.001L444.66 212.084C444.961 212.568 444.824 213.159 444.339 213.462C444.228 213.534 444.104 213.584 443.974 213.607C443.844 213.63 443.71 213.626 443.581 213.596C443.452 213.566 443.331 213.511 443.225 213.432C443.118 213.354 443.028 213.255 442.961 213.141C442.892 213.026 442.801 212.927 442.692 212.849C442.584 212.77 442.461 212.714 442.331 212.684C442.201 212.654 442.066 212.65 441.934 212.673C441.802 212.696 441.677 212.746 441.564 212.818C441.342 212.961 441.185 213.187 441.129 213.445C441.072 213.704 441.121 213.974 441.263 214.197C442.132 215.593 443.999 216.028 445.395 215.16C446.71 214.342 447.153 212.643 446.479 211.282C446.452 211.197 446.414 211.115 446.365 211.04L443.194 205.942C443.125 205.827 443.033 205.727 442.925 205.649C442.817 205.57 442.694 205.514 442.563 205.484C442.433 205.453 442.298 205.45 442.166 205.473C442.034 205.496 441.908 205.545 441.796 205.617ZM446.808 202.504C446.774 202.531 446.742 202.559 446.712 202.589C445.468 203.505 445.101 205.252 445.93 206.583C446.764 207.925 448.517 208.365 449.891 207.628C449.951 207.606 450.008 207.579 450.062 207.546L451.76 206.49C452.246 206.188 452.835 206.325 453.137 206.811C453.438 207.295 453.302 207.886 452.816 208.188L449.42 210.301C449.195 210.441 449.034 210.665 448.974 210.923C448.914 211.181 448.959 211.453 449.099 211.678C449.239 211.903 449.463 212.064 449.721 212.124C449.979 212.184 450.251 212.139 450.476 211.999L453.873 209.886C453.932 209.849 453.987 209.805 454.037 209.756C454.649 209.312 455.071 208.653 455.219 207.911C455.367 207.17 455.23 206.399 454.835 205.754C454.005 204.419 452.268 203.974 450.897 204.694C450.829 204.72 450.764 204.752 450.703 204.791L449.065 205.811C449.044 205.823 449.025 205.835 449.005 205.848C448.895 205.921 448.771 205.97 448.64 205.993C448.51 206.016 448.377 206.013 448.248 205.983C448.119 205.953 447.998 205.897 447.891 205.819C447.785 205.74 447.695 205.641 447.628 205.527C447.326 205.041 447.463 204.452 447.949 204.15L451.345 202.037C451.571 201.897 451.731 201.673 451.791 201.415C451.851 201.156 451.806 200.885 451.666 200.659C451.526 200.434 451.302 200.274 451.044 200.214C450.786 200.154 450.514 200.198 450.289 200.339L446.954 202.413C446.933 202.425 446.914 202.437 446.894 202.45C446.865 202.467 446.835 202.485 446.808 202.504ZM457.095 196.104C455.973 196.808 455.174 197.927 454.873 199.217C454.573 200.507 454.795 201.864 455.491 202.991C456.942 205.324 460.042 206.048 462.377 204.596C464.713 203.143 465.434 200.042 463.982 197.709C462.529 195.374 459.43 194.652 457.095 196.104ZM458.152 197.803C459.568 196.922 461.402 197.347 462.284 198.765C463.165 200.182 462.737 202.016 461.321 202.897C459.905 203.778 458.07 203.351 457.189 201.935C456.307 200.517 456.735 198.684 458.152 197.803Z" fill="white"/>
</g>
<path d="M257.833 7.5H232.166C230.707 7.5 229.308 8.07946 228.277 9.11091C227.245 10.1424 226.666 11.5413 226.666 13V27.6667C226.666 29.1254 227.245 30.5243 228.277 31.5558C229.308 32.5872 230.707 33.1667 232.166 33.1667H243.166V36.8333H235.833C235.346 36.8333 234.88 37.0265 234.536 37.3703C234.193 37.7141 233.999 38.1804 233.999 38.6667C233.999 39.1529 234.193 39.6192 234.536 39.963C234.88 40.3068 235.346 40.5 235.833 40.5H254.166C254.652 40.5 255.119 40.3068 255.462 39.963C255.806 39.6192 255.999 39.1529 255.999 38.6667C255.999 38.1804 255.806 37.7141 255.462 37.3703C255.119 37.0265 254.652 36.8333 254.166 36.8333H246.833V33.1667H257.833C259.291 33.1667 260.69 32.5872 261.722 31.5558C262.753 30.5243 263.333 29.1254 263.333 27.6667V13C263.333 11.5413 262.753 10.1424 261.722 9.11091C260.69 8.07946 259.291 7.5 257.833 7.5ZM259.666 27.6667C259.666 28.1529 259.473 28.6192 259.129 28.963C258.785 29.3068 258.319 29.5 257.833 29.5H232.166C231.68 29.5 231.213 29.3068 230.87 28.963C230.526 28.6192 230.333 28.1529 230.333 27.6667V13C230.333 12.5138 230.526 12.0475 230.87 11.7036C231.213 11.3598 231.68 11.1667 232.166 11.1667H257.833C258.319 11.1667 258.785 11.3598 259.129 11.7036C259.473 12.0475 259.666 12.5138 259.666 13V27.6667Z" fill="white"/>
<path d="M68.5309 170.5H68.0309V171V189.021L64.7263 185.671L64.3704 185.311L64.0144 185.671L62.6441 187.06L62.2976 187.412L62.6441 187.763L69.1441 194.351L69.5 194.712L69.8559 194.351L76.3559 187.763L76.7024 187.412L76.3559 187.06L74.9856 185.671L74.6296 185.311L74.2737 185.671L70.9691 189.021V171V170.5H70.4691H68.5309Z" fill="white" stroke="#F8F8F8"/>
<path d="M57.2708 158.637C57.2748 159.218 57.3285 159.798 57.4313 160.37L57.4319 160.373L57.614 161.421L57.7079 161.962L57.1613 162.005L56.093 162.091C51.8106 162.434 48.4583 166.047 48.4583 170.306C48.4583 174.85 52.184 178.556 56.7708 178.556H64.6041H65.1041V179.056V181V181.5H64.6041H56.7708C50.5594 181.5 45.5 176.482 45.5 170.306C45.5 165.029 49.2761 160.5 54.3366 159.383C54.3206 159.132 54.3125 158.884 54.3125 158.639C54.3125 151.391 60.2498 145.5 67.5409 145.5C70.5252 145.492 73.4241 146.491 75.7625 148.333C78.0102 150.104 79.6119 152.554 80.3285 155.307C81.7898 155.548 83.1259 156.288 84.1025 157.405C85.0644 158.506 85.6127 159.899 85.6621 161.348C87.8296 161.869 89.7716 163.079 91.1879 164.801C92.6911 166.629 93.5086 168.918 93.4999 171.279C93.4999 171.279 93.4999 171.279 93.4999 171.28L92.9999 171.278L57.2708 158.637ZM57.2708 158.637C57.2717 153.021 61.8763 148.444 67.5416 148.444C72.5805 148.444 76.832 152.025 77.6588 156.954C77.6588 156.954 77.6588 156.954 77.6588 156.954L77.8007 157.801L77.8736 158.236L78.3141 158.218L79.1664 158.183C79.2258 158.183 79.285 158.178 79.3433 158.167L57.2708 158.637Z" fill="white" stroke="white"/>
<path d="M96.5824 292.034C96.2702 291.693 95.8903 291.42 95.4669 291.233C95.0435 291.047 94.5859 290.95 94.1232 290.95H35.9232C35.4605 290.95 35.003 291.047 34.5796 291.233C34.1562 291.42 33.7763 291.693 33.464 292.034C33.1518 292.375 32.9139 292.778 32.7657 293.216C32.6174 293.655 32.562 294.119 32.6029 294.58L37.6696 351.246C37.7297 351.922 37.9944 352.563 38.4283 353.083C38.8622 353.604 39.4447 353.98 40.0979 354.161L64.0986 360.828C64.389 360.909 64.6891 360.95 64.9906 360.95C65.2915 360.95 65.5909 360.909 65.8809 360.83L89.9467 354.163C90.6003 353.982 91.183 353.605 91.6172 353.084C92.0513 352.563 92.3163 351.922 92.3767 351.246L97.4434 294.58C97.4844 294.119 97.429 293.655 97.2808 293.216C97.1326 292.778 96.8947 292.376 96.5824 292.034ZM85.9412 348.354L64.9923 354.158L44.1052 348.356L41.8364 322.986L39.5675 297.617H90.4789L85.9412 348.354ZM51.0893 327.617H74.0726L72.9821 338.52L64.4225 341.577L53.8774 337.811C53.4649 337.663 53.0274 337.598 52.5897 337.619C52.1521 337.64 51.723 337.748 51.3269 337.935C50.9308 338.122 50.5755 338.386 50.2813 338.711C49.9872 339.035 49.7599 339.415 49.6125 339.827C49.4651 340.24 49.4005 340.678 49.4224 341.115C49.4443 341.553 49.5522 341.982 49.74 342.378C49.9278 342.774 50.1918 343.129 50.5169 343.422C50.8419 343.716 51.2217 343.943 51.6345 344.09L63.3012 348.256C64.0265 348.515 64.8187 348.515 65.544 348.256L77.2107 344.09C77.8048 343.877 78.3264 343.501 78.7151 343.004C79.1037 342.507 79.3434 341.91 79.4063 341.282L81.073 324.616C81.1191 324.152 81.0676 323.684 80.9219 323.242C80.7762 322.8 80.5395 322.393 80.227 322.048C79.9145 321.702 79.5332 321.426 79.1077 321.237C78.6821 321.048 78.2216 320.95 77.7559 320.95H54.1052L53.1059 310.95H79.4225C80.3066 310.95 81.1544 310.599 81.7796 309.974C82.4047 309.349 82.7559 308.501 82.7559 307.617C82.7559 306.733 82.4047 305.885 81.7796 305.26C81.1544 304.635 80.3066 304.284 79.4225 304.284H49.4225C48.9569 304.284 48.4964 304.382 48.0708 304.571C47.6453 304.76 47.264 305.036 46.9515 305.381C46.639 305.726 46.4023 306.133 46.2566 306.575C46.1109 307.018 46.0595 307.486 46.1055 307.949L47.7722 324.616C47.8546 325.438 48.2397 326.201 48.8526 326.755C49.4655 327.31 50.2627 327.617 51.0893 327.617Z" fill="white"/>
</g>
<defs>
<clipPath id="clip0_1233_134">
<rect width="500" height="400" fill="white"/>
</clipPath>
<clipPath id="clip1_1233_134">
<rect width="96" height="96" fill="white" transform="translate(29 -2)"/>
</clipPath>
<clipPath id="clip2_1233_134">
<rect width="68.244" height="68.244" fill="white" transform="translate(400 19.8447) rotate(-23.1641)"/>
</clipPath>
<clipPath id="clip3_1233_134">
<rect width="34.4477" height="34.4477" fill="white" transform="translate(294.955 338) rotate(15.0684)"/>
</clipPath>
<clipPath id="clip4_1233_134">
<rect width="64" height="64" fill="white" transform="translate(402 173.806) rotate(-31.8845)"/>
</clipPath>
</defs>
</svg>
