<svg width="81" height="83" viewBox="0 0 81 83" fill="none" xmlns="http://www.w3.org/2000/svg">
<g filter="url(#filter0_d_584_118)">
<path d="M37.1318 6.99932L34.8719 5.69457L32.612 6.99932L7.33335 21.594L5.07345 22.8987V25.5082V54.6975V57.307L7.33335 58.6118L32.612 73.2064L34.8719 74.5112L37.1318 73.2064L62.4105 58.6118L64.6704 57.307V54.6975V25.5082V22.8987L62.4105 21.594L37.1318 6.99932Z" fill="white" stroke="#6C6363" strokeWidth="9.03958"/>
</g>
<g clipPath="url(#clip0_584_118)">
<path d="M37.0818 42.294C36.1344 41.6146 35.1129 41.0942 34.0172 40.7326C32.9215 40.371 31.7745 40.1902 30.5761 40.1902C29.5717 40.1902 28.6015 40.3162 27.6656 40.5682C26.7297 40.8202 25.8566 41.1709 25.0462 41.6201C24.2359 42.0693 23.4997 42.6172 22.8377 43.2636C22.1757 43.9101 21.6051 44.6223 21.1257 45.4002C20.6463 46.1782 20.2754 47.0164 20.0129 47.9149C19.7504 48.8133 19.6191 49.7447 19.6191 50.7089H17.4277C17.4277 49.3941 17.6275 48.1285 18.0269 46.9123C18.4264 45.6961 19.0028 44.573 19.7561 43.543C20.5094 42.5131 21.3996 41.5982 22.4268 40.7983C23.4541 39.9985 24.6182 39.3684 25.9194 38.9083C25.2802 38.5248 24.7095 38.0755 24.2073 37.5606C23.7052 37.0456 23.2714 36.4758 22.9062 35.8513C22.541 35.2267 22.2728 34.5748 22.1016 33.8955C21.9304 33.2161 21.8333 32.5094 21.8105 31.7753C21.8105 30.6138 22.0388 29.5236 22.4953 28.5046C22.9519 27.4856 23.5796 26.5981 24.3785 25.8421C25.1775 25.0861 26.1077 24.4834 27.1691 24.0342C28.2306 23.585 29.3662 23.3604 30.5761 23.3604C31.7859 23.3604 32.9215 23.5795 33.983 24.0178C35.0444 24.456 35.9689 25.0587 36.7565 25.8257C37.544 26.5927 38.1717 27.4856 38.6397 28.5046C39.1076 29.5236 39.3416 30.6138 39.3416 31.7753C39.3416 32.4984 39.2503 33.2052 39.0677 33.8955C38.8851 34.5857 38.6112 35.2377 38.2459 35.8513C37.8807 36.4649 37.447 37.0291 36.9448 37.5441C36.4426 38.0591 35.8662 38.5138 35.2156 38.9083C35.9005 39.1603 36.5453 39.4561 37.1502 39.7958V42.294H37.0818ZM24.0019 31.7753C24.0019 32.6518 24.1731 33.4681 24.5155 34.2242C24.8579 34.9802 25.3259 35.6486 25.9194 36.2293C26.5129 36.81 27.2091 37.2647 28.008 37.5934C28.807 37.9221 29.663 38.0865 30.5761 38.0865C31.4777 38.0865 32.328 37.9221 33.127 37.5934C33.9259 37.2647 34.6221 36.8155 35.2156 36.2457C35.8091 35.676 36.2828 35.0076 36.6366 34.2406C36.9904 33.4736 37.1616 32.6518 37.1502 31.7753C37.1502 30.9097 36.979 30.0934 36.6366 29.3264C36.2942 28.5594 35.8263 27.891 35.2328 27.3213C34.6393 26.7515 33.9373 26.2968 33.127 25.9571C32.3166 25.6175 31.4663 25.4531 30.5761 25.4641C29.663 25.4641 28.8127 25.6284 28.0252 25.9571C27.2376 26.2859 26.5414 26.7351 25.9365 27.3049C25.3316 27.8746 24.8579 28.5485 24.5155 29.3264C24.1731 30.1044 24.0019 30.9206 24.0019 31.7753ZM52.49 44.3977V57.0201H34.9588V44.3977H39.3416V40.1902H48.1072V44.3977H52.49ZM41.533 44.3977H45.9158V42.294H41.533V44.3977ZM50.2986 50.7089H48.1072V52.8126H45.9158V50.7089H41.533V52.8126H39.3416V50.7089H37.1502V54.9164H50.2986V50.7089ZM50.2986 46.5014H37.1502V48.6052H50.2986V46.5014Z" fill="#FFB808"/>
</g>
<defs>
<filter id="filter0_d_584_118" x="0.553711" y="0.475586" width="79.6133" height="89.5853" filterUnits="userSpaceOnUse" colorInterpolationFilters="sRGB">
<feFlood floodOpacity="0" result="BackgroundImageFix"/>
<feColorMatrix in="SourceAlpha" type="matrix" values="0 0 0 0 0 0 0 0 0 0 0 0 0 0 0 0 0 0 127 0" result="hardAlpha"/>
<feOffset dx="8.39389" dy="7.74821"/>
<feGaussianBlur stdDeviation="1.29137"/>
<feComposite in2="hardAlpha" operator="out"/>
<feColorMatrix type="matrix" values="0 0 0 0 0 0 0 0 0 0 0 0 0 0 0 0 0 0 0.25 0"/>
<feBlend mode="normal" in2="BackgroundImageFix" result="effect1_dropShadow_584_118"/>
<feBlend mode="normal" in="SourceGraphic" in2="effect1_dropShadow_584_118" result="shape"/>
</filter>
<clipPath id="clip0_584_118">
<rect width="35.0622" height="33.6597" fill="white" transform="translate(17.4277 23.3604)"/>
</clipPath>
</defs>
</svg>
