<svg width="81" height="83" viewBox="0 0 81 83" fill="none" xmlns="http://www.w3.org/2000/svg">
<g filter="url(#filter0_d_584_113)">
<path d="M37.333 6.99932L35.0731 5.69457L32.8132 6.99932L7.53452 21.594L5.27463 22.8987V25.5082V54.6975V57.307L7.53452 58.6118L32.8132 73.2064L35.0731 74.5112L37.333 73.2064L62.6117 58.6118L64.8716 57.307V54.6975V25.5082V22.8987L62.6117 21.594L37.333 6.99932Z" fill="white" stroke="#6C6363" strokeWidth="9.03958"/>
</g>
<g clipPath="url(#clip0_584_113)">
<path d="M23.8968 36.6559L31.5427 56.202C31.5671 56.2644 31.6193 56.3131 31.6878 56.3372C31.7562 56.3614 31.8354 56.359 31.9078 56.3307L38.7374 53.6591C38.819 53.6273 38.8934 53.58 38.9551 53.5209C39.0168 53.4617 39.0643 53.3922 39.0941 53.3174C39.1239 53.2426 39.1351 53.1644 39.1271 53.0886C39.1191 53.0128 39.092 52.9413 39.0478 52.8793L34.1954 46.747L35.7849 46.1252C35.9297 46.0685 36.0492 45.9646 36.117 45.8362C36.1848 45.7078 36.1955 45.5655 36.1466 45.4406L31.5407 33.6659L23.8968 36.6559ZM47.0017 30.5064L46.6922 30.5562L43.2493 21.7546C43.2249 21.6921 43.1727 21.6435 43.1042 21.6193C43.0357 21.5952 42.9566 21.5975 42.8842 21.6259L39.9836 22.7605C39.9176 22.7866 39.862 22.8324 39.8271 22.8896L33.7247 32.8116L37.4094 42.2314L48.6244 45.3793C48.6888 45.3976 48.7608 45.3936 48.827 45.368L51.7276 44.2333C51.8 44.205 51.8597 44.1531 51.8936 44.0889C51.9275 44.0247 51.9329 43.9535 51.9084 43.8911L48.4655 35.0895L48.7266 34.916C49.323 34.5056 50.3079 33.3621 49.7628 31.9685C49.2177 30.575 47.7183 30.4032 47.0017 30.5064ZM21.7129 37.5102L18.7099 38.6849C18.6375 38.7132 18.5778 38.7652 18.5439 38.8294C18.5099 38.8936 18.5046 38.9647 18.529 39.0272L19.3487 41.1225C19.2764 41.2423 19.2132 41.3657 19.1595 41.4918C18.9406 42.0105 18.7668 42.8537 19.1873 43.9287C19.6523 45.1174 20.4888 45.6686 21.2101 45.8813L22.0295 47.976C22.054 48.0384 22.1062 48.0871 22.1746 48.1112C22.2431 48.1354 22.3223 48.133 22.3947 48.1047L25.3976 46.93L21.7129 37.5102Z" fill="#14B25F"/>
</g>
<defs>
<filter id="filter0_d_584_113" x="0.754883" y="0.475586" width="79.6133" height="89.5853" filterUnits="userSpaceOnUse" colorInterpolationFilters="sRGB">
<feFlood floodOpacity="0" result="BackgroundImageFix"/>
<feColorMatrix in="SourceAlpha" type="matrix" values="0 0 0 0 0 0 0 0 0 0 0 0 0 0 0 0 0 0 127 0" result="hardAlpha"/>
<feOffset dx="8.39389" dy="7.74821"/>
<feGaussianBlur stdDeviation="1.29137"/>
<feComposite in2="hardAlpha" operator="out"/>
<feColorMatrix type="matrix" values="0 0 0 0 0 0 0 0 0 0 0 0 0 0 0 0 0 0 0.25 0"/>
<feBlend mode="normal" in2="BackgroundImageFix" result="effect1_dropShadow_584_113"/>
<feBlend mode="normal" in="SourceGraphic" in2="effect1_dropShadow_584_113" result="shape"/>
</filter>
<clipPath id="clip0_584_113">
<rect width="37.5217" height="32.3674" fill="white" transform="translate(11.8447 31.5952) rotate(-21.3639)"/>
</clipPath>
</defs>
</svg>
