<svg width="80" height="83" viewBox="0 0 80 83" fill="none" xmlns="http://www.w3.org/2000/svg">
<g filter="url(#filter0_d_584_123)">
<path d="M36.7334 6.99932L34.4735 5.69457L32.2136 6.99932L6.93491 21.594L4.67502 22.8987V25.5082V54.6975V57.307L6.93491 58.6118L32.2136 73.2064L34.4735 74.5112L36.7334 73.2064L62.0121 58.6118L64.2719 57.307V54.6975V25.5082V22.8987L62.0121 21.594L36.7334 6.99932Z" fill="white" stroke="#6C6363" strokeWidth="9.03958"/>
</g>
<g clipPath="url(#clip0_584_123)">
<path d="M14.9268 51.0305V48.2986H18.0385V27.8091H49.1563V48.2986H52.268V51.0305H14.9268ZM30.4856 48.2986H36.7092V46.9326H30.4856V48.2986ZM21.1503 44.2007H46.0445V30.541H21.1503V44.2007Z" fill="#F74037"/>
<path fillRule="evenodd" clipRule="evenodd" d="M29.6283 33.8789C29.2164 33.8789 28.8214 33.9906 28.5301 34.1894C28.2388 34.3882 28.0752 34.6578 28.0752 34.939V40.3572C28.0752 40.6384 28.2388 40.908 28.5301 41.1068C28.8214 41.3056 29.2164 41.4173 29.6283 41.4173H37.5666C37.9786 41.4173 38.3736 41.3056 38.6649 41.1068C38.9562 40.908 39.1198 40.6384 39.1198 40.3572V34.939C39.1198 34.6578 38.9562 34.3882 38.6649 34.1894C38.3736 33.9906 37.9786 33.8789 37.5666 33.8789H29.6283ZM32.4102 36.8377C32.5016 36.7707 32.5514 36.6821 32.5491 36.5906C32.5467 36.499 32.4924 36.4117 32.3975 36.347C32.3027 36.2822 32.1747 36.2451 32.0406 36.2435C31.9064 36.2419 31.7766 36.2759 31.6785 36.3383L30.1253 37.3984C30.0284 37.4646 29.9739 37.5545 29.9739 37.6481C29.9739 37.7417 30.0284 37.8315 30.1253 37.8978L31.6785 38.9579C31.7766 39.0203 31.9064 39.0543 32.0406 39.0527C32.1747 39.0511 32.3027 39.014 32.3975 38.9492C32.4924 38.8845 32.5467 38.7971 32.5491 38.7056C32.5514 38.6141 32.5016 38.5255 32.4102 38.4585L31.2229 37.6481L32.4102 36.8377ZM35.5165 36.3383C35.4691 36.3036 35.4119 36.2757 35.3484 36.2564C35.2849 36.2371 35.2164 36.2267 35.1469 36.2259C35.0773 36.2251 35.0083 36.2338 34.9438 36.2516C34.8794 36.2693 34.8208 36.2958 34.7716 36.3293C34.7225 36.3629 34.6837 36.4029 34.6577 36.4469C34.6317 36.4909 34.6189 36.538 34.6201 36.5854C34.6213 36.6329 34.6365 36.6797 34.6648 36.723C34.6931 36.7664 34.7339 36.8054 34.7848 36.8377L35.9721 37.6481L34.7848 38.4585C34.7339 38.4908 34.6931 38.5298 34.6648 38.5732C34.6365 38.6165 34.6213 38.6633 34.6201 38.7108C34.6189 38.7582 34.6317 38.8053 34.6577 38.8493C34.6837 38.8933 34.7225 38.9333 34.7716 38.9669C34.8208 39.0004 34.8794 39.0269 34.9438 39.0446C35.0083 39.0624 35.0773 39.0711 35.1469 39.0703C35.2164 39.0695 35.2849 39.0591 35.3484 39.0398C35.4119 39.0205 35.4691 38.9926 35.5165 38.9579L37.0696 37.8978C37.1666 37.8315 37.221 37.7417 37.221 37.6481C37.221 37.5545 37.1666 37.4646 37.0696 37.3984L35.5165 36.3383Z" fill="#4A90F4"/>
</g>
<defs>
<filter id="filter0_d_584_123" x="0.155273" y="0.475586" width="79.6133" height="89.5853" filterUnits="userSpaceOnUse" colorInterpolationFilters="sRGB">
<feFlood floodOpacity="0" result="BackgroundImageFix"/>
<feColorMatrix in="SourceAlpha" type="matrix" values="0 0 0 0 0 0 0 0 0 0 0 0 0 0 0 0 0 0 127 0" result="hardAlpha"/>
<feOffset dx="8.39389" dy="7.74821"/>
<feGaussianBlur stdDeviation="1.29137"/>
<feComposite in2="hardAlpha" operator="out"/>
<feColorMatrix type="matrix" values="0 0 0 0 1 0 0 0 0 0.983333 0 0 0 0 0.983333 0 0 0 0.53 0"/>
<feBlend mode="normal" in2="BackgroundImageFix" result="effect1_dropShadow_584_123"/>
<feBlend mode="normal" in="SourceGraphic" in2="effect1_dropShadow_584_123" result="shape"/>
</filter>
<clipPath id="clip0_584_123">
<rect width="37.3413" height="32.7832" fill="white" transform="translate(14.9268 23.7109)"/>
</clipPath>
</defs>
</svg>
